<svg id="Layer_1" data-name="Layer 1" xmlns="http://www.w3.org/2000/svg" viewBox="0 0 1000 1000"><defs><style>.cls-1{fill:#f90;}.cls-1,.cls-2{fill-rule:evenodd;}</style></defs><path class="cls-1" d="M595.93,567.68C549.78,601.8,482.66,620,424.77,620c-81.11,0-153.83-29.92-209.21-79.71-4.19-3.91-.56-9.23,4.76-6.15,59.57,34.68,133.13,55.38,209.2,55.38,51.18,0,107.68-10.63,159.7-32.72,7.83-3.08,14.26,5.31,6.71,10.9Z"/><path class="cls-1" d="M615.23,545.59c-5.87-7.55-39.16-3.64-54-1.68-4.47.56-5.31-3.36-1.12-6.15,26.57-18.74,69.92-13.15,75-7s-1.4,49.79-26.29,70.49c-3.92,3.07-7.55,1.39-5.88-2.8C608.52,584.46,621.1,553.42,615.23,545.59Z"/><path class="cls-2" d="M562.09,406.31V388.13a4.26,4.26,0,0,1,4.47-4.48h81.11a4.67,4.67,0,0,1,4.76,4.48v15.38c0,2.52-2.24,5.87-6.16,11.47l-41.95,59.85c15.66-.28,32.17,2,46.15,9.79,3.08,1.68,3.91,4.47,4.19,7v19.3c0,2.79-2.79,5.87-5.87,4.19-24.89-13.14-58.17-14.54-85.58.28-2.8,1.4-5.88-1.4-5.88-4.19V492.73c0-2.8,0-7.83,3.08-12.31l48.67-69.64H566.84a4.66,4.66,0,0,1-4.75-4.47ZM266.46,519H241.85a5.06,5.06,0,0,1-4.47-4.2V388.41a4.66,4.66,0,0,1,4.75-4.48h22.94a4.56,4.56,0,0,1,4.47,4.2v16.5h.56c5.87-15.94,17.34-23.5,32.44-23.5,15.39,0,25.18,7.56,31.89,23.5,5.87-15.94,19.58-23.5,34.12-23.5,10.35,0,21.53,4.2,28.53,14,7.83,10.63,6.15,26,6.15,39.71v80a4.66,4.66,0,0,1-4.75,4.48H374.14a4.81,4.81,0,0,1-4.47-4.48V447.7c0-5.31.56-18.74-.56-23.77-2-8.39-7.27-10.91-14.55-10.91a16.46,16.46,0,0,0-14.82,10.35c-2.52,6.43-2.24,17.06-2.24,24.33v67.12a4.66,4.66,0,0,1-4.75,4.48H308.14a4.81,4.81,0,0,1-4.48-4.48V447.7c0-14,2.24-35-15.1-35-17.62,0-17.06,20.14-17.06,35v67.12a4.92,4.92,0,0,1-5,4.2ZM722.35,381.13c36.64,0,56.49,31.33,56.49,71.32,0,38.6-21.81,69.37-56.49,69.37-35.8,0-55.38-31.33-55.38-70.48-.28-39.44,19.58-70.21,55.38-70.21Zm0,26c-18.18,0-19.3,24.89-19.3,40.27s-.28,48.38,19,48.38c19,0,20.14-26.57,20.14-42.79,0-10.62-.56-23.49-3.64-33.56-2.8-8.95-8.39-12.3-16.22-12.3ZM826.11,519H801.5a4.81,4.81,0,0,1-4.48-4.48V387.85a4.84,4.84,0,0,1,4.76-4.2h22.93a4.79,4.79,0,0,1,4.48,3.64v19.3h.56c7-17.34,16.5-25.46,33.56-25.46,10.91,0,21.81,3.92,28.81,14.83,6.43,10.07,6.43,27.13,6.43,39.43V515.1a4.61,4.61,0,0,1-4.76,3.92H869.18a5.08,5.08,0,0,1-4.47-3.92V446.3c0-14,1.67-34.12-15.39-34.12-5.87,0-11.46,3.91-14.26,10.07-3.36,7.83-3.92,15.38-3.92,24.05v68.24a5.12,5.12,0,0,1-5,4.48ZM497.48,458.61c0,9.51.28,17.62-4.47,26.29-3.92,7-10.07,11.18-17.06,11.18-9.51,0-15.11-7.27-15.11-17.9,0-21,18.74-24.89,36.64-24.89Zm24.89,60.13a5,5,0,0,1-5.87.56c-8.11-6.71-9.79-10.07-14.26-16.5-13.43,13.7-23.22,17.9-40.56,17.9-20.69,0-36.91-12.87-36.91-38.32,0-20.14,10.9-33.56,26.29-40.27,13.42-5.88,32.16-7,46.42-8.67v-3.08c0-5.87.56-12.87-3.07-17.9C491.33,408,485.74,406,480.7,406c-9.51,0-17.9,4.75-19.86,14.82-.56,2.24-1.95,4.47-4.19,4.47l-23.77-2.51c-2-.56-4.2-2-3.64-5,5.59-29.08,31.6-37.75,55.1-37.75,12,0,27.69,3.07,37.2,12.3,12,11.19,10.9,26.29,10.9,42.51v38.32c0,11.47,4.76,16.5,9.23,22.93,1.68,2.24,2,5,0,6.44-5.31,4.19-14.26,12-19.3,16.22ZM174.45,458.61c0,9.51.28,17.62-4.48,26.29-3.91,7-10.06,11.18-17.06,11.18-9.51,0-15.1-7.27-15.1-17.9,0-21,18.74-24.89,36.64-24.89Zm24.61,60.13a5,5,0,0,1-5.87.56c-8.11-6.71-9.79-10.07-14.27-16.5-13.42,13.7-23.21,17.9-40.55,17.9-20.7,0-36.92-12.87-36.92-38.32,0-20.14,10.91-33.56,26.29-40.27,13.43-5.88,32.17-7,46.43-8.67v-3.08c0-5.87.56-12.87-3.08-17.9C168,408,162.42,406,157.39,406c-9.51,0-17.9,4.75-19.86,14.82-.56,2.24-2,4.47-4.19,4.47l-23.78-2.51c-2-.56-4.19-2-3.63-5C111.52,388.69,137.53,380,161,380c12,0,27.69,3.07,37.2,12.3,12,11.19,10.91,26.29,10.91,42.51v38.32c0,11.47,4.75,16.5,9.23,22.93,1.68,2.24,2,5,0,6.44-5.31,4.19-14.26,12-19.3,16.22Z"/></svg>