<svg xmlns="http://www.w3.org/2000/svg" width="14.53in" height="15.54in" viewBox="0 0 1046.17 1118.59"><path d="M53,894.94a1.89,1.89,0,0,1,.36-1.05,4.54,4.54,0,0,0,.41-.9c1-3.07,3-5.31,5.07-7.69l.1-.1a11.28,11.28,0,0,0,2.64-4.09l.06-.27a7.25,7.25,0,0,0,.07-2.93,9.81,9.81,0,0,0-.51-1.5c-.13-.31-.24-.59-.34-.88a8.13,8.13,0,0,1-.28-5,11.26,11.26,0,0,1,2.44-3.37l.75-.82c.46-.53.93-1,1.42-1.54.67-.7,1.35-1.41,2-2.17l1-1.24,0,0c.73-.88,1.41-1.71,2.06-2.58,2.14-2.86,1.94-5.94,1.73-9.19-.08-1.4.69-2.43,2.3-3.07a14.76,14.76,0,0,1,4.14-.8c.3,0,.61,0,.92,0a19.82,19.82,0,0,1,5,.84l1.31.32c1.24.3,2.46.58,3.68.86l2.79.64a29.36,29.36,0,0,0,6.4.6h0a9.42,9.42,0,0,0,4.06-.84,4.26,4.26,0,0,0,2.24-4.9c-.1-.39-.22-.79-.34-1.18l0-.07a9,9,0,0,1-.55-4.74,7.73,7.73,0,0,1,2.1-3.05,12.15,12.15,0,0,1,3.51-2.42,12.58,12.58,0,0,1,4-1.17,1.62,1.62,0,0,1,.32,0l.46,0h.29a4.35,4.35,0,0,0,1.43-.25l.41-.13a9.69,9.69,0,0,0,1.88-.6,3,3,0,0,0,.4-.21l.17-.1a4.3,4.3,0,0,0,2.05-3.78,12.47,12.47,0,0,0-.83-4.16c-.18-.47-.38-.93-.57-1.39s-.47-1.09-.65-1.64a4.73,4.73,0,0,1-.19-1.05v-.06a4.39,4.39,0,0,0-.58-1.8c-.06-.11-.14-.23-.2-.33a7.21,7.21,0,0,1-.52-1,15.77,15.77,0,0,1-1-3.39,8,8,0,0,1,.41-3.41l0-.08c.09-.35.18-.68.25-1a13.11,13.11,0,0,0,0-5.19,12.44,12.44,0,0,0-1.54-4.15A7.73,7.73,0,0,0,112,794a22.44,22.44,0,0,0-5.12-1.59c-.62-.14-1.23-.27-1.86-.43s-1.15-.27-1.66-.38a12.59,12.59,0,0,1-5-1.84l-1.22-.88c-1-.75-2-1.46-3-2.1-.25-.16-.51-.35-.79-.55s-.58-.41-.85-.58a4.22,4.22,0,0,0-3.61-.47,2.57,2.57,0,0,1-.76.14,2.36,2.36,0,0,1-1-.27,6.82,6.82,0,0,1-2-1.82,13.75,13.75,0,0,1-1.83-3.84l0-.09-.27-.74A17.93,17.93,0,0,1,81.86,774a16.85,16.85,0,0,1,.27-4.1l0-.25a20.81,20.81,0,0,1,1.45-4.58c.33-.83.67-1.67.93-2.5s.49-1.43.72-2.07c.4-1.12.81-2.27,1.11-3.42a11.25,11.25,0,0,0,.24-1.59c0-.29.06-.58.11-.87a11.33,11.33,0,0,0,.12-1.86,2.61,2.61,0,0,1,.08-.57,4.7,4.7,0,0,0,.09-.92c0-.43,0-.9,0-1.39a18.06,18.06,0,0,1,0-2.44,9,9,0,0,0-.32-3.21,7.23,7.23,0,0,0-.71-1.57l-.22-.41a5.41,5.41,0,0,1-.34-.89l0-.12a4.28,4.28,0,0,0-.89-1.58l-.44-.48a7.6,7.6,0,0,1-.92-1.09c-.29-.45-1.18-1.83.48-4.7.15-.26.27-.49.37-.68a4.25,4.25,0,0,0-.45-4.49,4.93,4.93,0,0,1-.53-.81,12.3,12.3,0,0,1-.82-6.08l0-.62c.06-2,.89-3,2.41-4.27,1.14-.93,2.37-1.76,3.56-2.57.91-.61,1.75-1.18,2.58-1.8l.36-.26a37.26,37.26,0,0,1,3.51-2.43c.39-.24.81-.46,1.18-.65s.82-.42,1.21-.66a4.23,4.23,0,0,0,2-4,1.39,1.39,0,0,1,.1-.67,7.22,7.22,0,0,1,2.7-3.07c.4-.31.78-.61,1.14-.93s.69-.63,1-.95a28.92,28.92,0,0,1,3-2.51c1.65-1.16,3.38-2.49,5-3.87a12.7,12.7,0,0,0,1.71-1.89l.39-.49c.11-.14.25-.29.39-.46a4.25,4.25,0,0,0,.84-4.26l-.13-.35a6.79,6.79,0,0,1-.58-2.5,7.48,7.48,0,0,1,.65-2.43,9.07,9.07,0,0,0,.6-1.92,34.17,34.17,0,0,0,.34-4.72V673c0-.33,0-.65,0-1a16.76,16.76,0,0,1,1.09-5.16,13,13,0,0,1,1.85-3.3,6,6,0,0,0,1-2.08l.13-.41c.12-.35.23-.7.35-1,.27-.82.55-1.65.78-2.49.09-.33.19-.63.28-.93a8.38,8.38,0,0,0,.53-2.65,13.07,13.07,0,0,0-.16-1.71,11.93,11.93,0,0,1-.17-1.71,10.54,10.54,0,0,1,.28-2.17c.08-.41.16-.78.21-1.18a12,12,0,0,0-.2-4.15,10.12,10.12,0,0,0-1.21-2.69c-.25-.44-.51-.9-.73-1.37a10.84,10.84,0,0,1-.87-4l0-.5a19.34,19.34,0,0,1,0-2.15v0c0-.33,0-.67,0-1,0-.6,0-1.2-.08-1.78s-.07-1.08-.08-1.62a38.22,38.22,0,0,0-.45-4.68c-.13-.89-.26-1.8-.34-2.7a16.54,16.54,0,0,1,.15-5.47c.53-2.34,1.1-4.41,1.73-6.33a12.39,12.39,0,0,1,3.58-5.31,25.46,25.46,0,0,1,2.75-2.13l1.08-.66c.57-.34,1.15-.69,1.69-1.08a17.28,17.28,0,0,0,4.65-5,11.57,11.57,0,0,0,1.76-6.85c0-.16,0-.32,0-.48V587A3.12,3.12,0,0,1,136,585a7.3,7.3,0,0,1,1.9-1.72,10.89,10.89,0,0,1,4.07-1.67,11.25,11.25,0,0,1,1.53-.09l1.15,0h.08l1.09,0a11.79,11.79,0,0,0,1.43-.08,4.14,4.14,0,0,0,.86-.2,11.62,11.62,0,0,0,1.66-.79l.34-.18a4.28,4.28,0,0,0,.57-.37,11,11,0,0,0,1.34-1.27l.24-.26a22.25,22.25,0,0,1,1.91-1.73l.44-.38.56-.49,0,0a8.68,8.68,0,0,1,1.86-1.41,13,13,0,0,1,2.63-.91,17,17,0,0,0,1.93-.58l.9-.34a21.8,21.8,0,0,0,2.53-1.07,26.65,26.65,0,0,1,2.82-1.23,15.44,15.44,0,0,0,4.82-2.59,4.16,4.16,0,0,0,.83-1,8.14,8.14,0,0,0,.45-.89,8.07,8.07,0,0,1,.72-1.31,12.59,12.59,0,0,1,3.32-2.94c1.51-1,3.08-2,4.69-2.94a7,7,0,0,0,3.54-6.29c0-.23,0-.46,0-.69a11.27,11.27,0,0,0,0-1.16,4.38,4.38,0,0,0-.28-1.29c0-.09-.07-.18-.11-.28l-.12-.3c-.5-1.23-1.05-2.56-1.73-3.86a12.92,12.92,0,0,0-1.5-2.15,19.2,19.2,0,0,1-1.25-1.71A13.15,13.15,0,0,0,177.9,537a15.06,15.06,0,0,0-3.53-1.85l-.71-.26a68.28,68.28,0,0,1-6.84-2.75,15.85,15.85,0,0,1-3.49-2.67l-.1-.09a12.05,12.05,0,0,0-4.5-3l-1-.33c-1.67-.55-3.38-1.12-5-1.83a12.45,12.45,0,0,1-4.88-4.48,22.7,22.7,0,0,1-2.33-6.29,16.18,16.18,0,0,1-.53-5.28,9.64,9.64,0,0,0-1-5.84,8.08,8.08,0,0,0-1.54-1.76,6.71,6.71,0,0,1-1.73-2.11,16.48,16.48,0,0,1-1.28-5.16q-.08-.57-.12-1.14a12.67,12.67,0,0,0-.53-3,9.06,9.06,0,0,0-2.64-3.46c-.25-.25-.51-.49-.75-.74a6.44,6.44,0,0,1-1.73-3.86,3.8,3.8,0,0,1,.07-1.21c0-.18.05-.34.07-.49s0-.29,0-.43c0-.45.05-.88.09-1.3v-.07c0-.27.06-.54.07-.81a10.09,10.09,0,0,0-.77-4.59,9.42,9.42,0,0,0-2.5-3.47,7.5,7.5,0,0,0-1.87-1.14l-.33-.16c-.79-.4-1.56-.83-2.3-1.25-.54-.31-1-.6-1.58-.88l-.86-.45a13.82,13.82,0,0,1-3.49-2.25c-1.93-1.88-3.35-3.6-4-5.88a13.09,13.09,0,0,1-.34-2.4,12.76,12.76,0,0,0-.34-2.38,12,12,0,0,0-1.09-2.48c-.12-.24-.25-.48-.37-.73s-.21-.45-.31-.68l-.17-.41a4.2,4.2,0,0,0-1.13-1.51,18.39,18.39,0,0,0-1.69-1.23c-3.55-2.41-3.9-3.75-3.3-5.38a8.24,8.24,0,0,1,1-1.74,8.85,8.85,0,0,0,1-1.81,15.49,15.49,0,0,0,.64-5.32c0-.5,0-1,0-1.48V429a20.24,20.24,0,0,1,0-3l0-.31a20.25,20.25,0,0,1,.58-3.44,8.22,8.22,0,0,0,.36-3.29,4.25,4.25,0,0,0-1.3-2.59,3.82,3.82,0,0,1-.29-.32c-.45-.58-1.82-2.34,1.38-6.81a8.78,8.78,0,0,0,1.3-3.45l0-.09a7.41,7.41,0,0,0,.15-1.31,4.25,4.25,0,0,0-.46-2.1l0-.1a1.51,1.51,0,0,0-.15-.28,6.81,6.81,0,0,0-1.54-1.69c-.29-.26-.57-.5-.85-.78l-.2-.2c-1.64-1.62-1.22-2.21-1-2.56.67-.94,1.89-1.17,3.29-1.36l.55-.08a8.23,8.23,0,0,0,2.63-1.08l.67-.35.12-.07a11,11,0,0,0,2-1.2,4.08,4.08,0,0,0,1.07-1.3,7.36,7.36,0,0,0,.84-3.39,12.65,12.65,0,0,0-.51-3.13c-.09-.35-.18-.7-.26-1.06a5.75,5.75,0,0,1,.74-4c.1-.23.2-.46.31-.69s.09-.23.12-.3a4.28,4.28,0,0,0,.24-1.84c0-.18,0-.39,0-.6l0-.35a4.2,4.2,0,0,0-1.09-2.62c-.15-.17-.37-.4-.55-.58a7.63,7.63,0,0,1-1.09-1.28c-1.55-2.45-1.44-5.48-1.1-8.39a34,34,0,0,0,.34-4.19,28.33,28.33,0,0,0-.36-4,16.77,16.77,0,0,0-2.2-5.66c-.28-.52-.56-1.05-.83-1.59a8.84,8.84,0,0,1-.4-1c-.07-.21-.16-.45-.21-.59a4.61,4.61,0,0,0-.54-1l-.27-.35a6.2,6.2,0,0,1-.48-.63,10.3,10.3,0,0,1-1.29-3.91,22.19,22.19,0,0,0-.69-2.81l-.16-.54a10.75,10.75,0,0,0-.59-1.52,4.24,4.24,0,0,0-1.29-1.59l-1-.75a4.33,4.33,0,0,0-.46-.5,6.2,6.2,0,0,1-1.76-2.25,9,9,0,0,1-.52-3.7,31.2,31.2,0,0,0-1-7.9c-.1-.41-.2-.82-.29-1.22a20.24,20.24,0,0,0-.67-2.48,4.9,4.9,0,0,1-.16-3.72,10,10,0,0,1,2.22-3.37,8.36,8.36,0,0,0,1.64-3.07,2.75,2.75,0,0,0,.11-.41,9.66,9.66,0,0,0,.09-2.56c0-.47,0-.94,0-1.38a13.26,13.26,0,0,1,.65-3.15l.16-.56c.33-1.18.67-2.4,1-3.7a20.07,20.07,0,0,0,.32-4.35,17,17,0,0,0-1.93-7.74l-.19-.36a2.75,2.75,0,0,1-.46-1.41,15.64,15.64,0,0,1,0-2.06c0-.29.08-.58.14-.89l.09-.55a4.25,4.25,0,0,0-.61-2.93l-.12-.19a5.21,5.21,0,0,1-.35-3.86,12.64,12.64,0,0,0,.65-3.86,7.61,7.61,0,0,0-.93-4c-.37-.65-.73-1.26-1.16-1.93a4.57,4.57,0,0,1-.6-1.55,2.54,2.54,0,0,0-.13-.45l-.3-.85a4.06,4.06,0,0,0-.11-.92l-.15-.59c-.08-.36-.15-.64-.17-.77a5.52,5.52,0,0,1,.33-2.56c.07-.2.13-.39.2-.58l0-.06a5.79,5.79,0,0,1,.72-1.62l.31-.45a10.88,10.88,0,0,0,1-1.51,4.21,4.21,0,0,0,.3-.84,8.81,8.81,0,0,0,.19-3.2,4.23,4.23,0,0,0-1.32-2.52,8.53,8.53,0,0,0-1.8-1.22,9.75,9.75,0,0,1-2.39-1.86,9.07,9.07,0,0,1-2.34-4.11,8.86,8.86,0,0,1-.25-2c0-.38,0-.76-.1-1.15s-.08-1-.1-1.49a14.71,14.71,0,0,0-.09-1.49,3.7,3.7,0,0,1,0-.55,4.06,4.06,0,0,0-.27-1.46l0-.09-.12-.35c-.12-.33-.26-.65-.42-1a6,6,0,0,1-.63-1.93,5.64,5.64,0,0,1,.51-2.79A11.79,11.79,0,0,1,96,216.79l0-.07a4.25,4.25,0,0,0-3.55-6.58l-.44,0c-.26,0-.5,0-.7.05H91.3c-.25,0-.5,0-.74.06l-.44.05a12.37,12.37,0,0,1-1.69.16,3.23,3.23,0,0,1-1.63-.36c-1.2-.71-1.85-2.46-2.13-3.45-.1-.38-.2-.76-.29-1.15-.15-.6-.3-1.23-.51-1.83a25.06,25.06,0,0,0-1.24-3c-.23-.48-.51-.94-.77-1.38a16.69,16.69,0,0,1-.89-1.6,21.09,21.09,0,0,0-1.88-3.28,3.78,3.78,0,0,1-.65-1.37s0-.09,0-.16a4,4,0,0,0-.22-1l.22-1.4c0-.1.09-.21.13-.31s.08-.21.11-.31c.46-1.33.92-1.38,1.37-1.42h.07c.68,0,1.29.92,1.84,1.92l.11.2a10.53,10.53,0,0,0,.68,1,9.19,9.19,0,0,1,.82,1.3l0,.1a4.25,4.25,0,0,0,3.85,2.47l.36,0a4.25,4.25,0,0,0,3.75-3.12c.15-.55.61-1.43,1.25-1.6a1.73,1.73,0,0,1,.51-.06,5.65,5.65,0,0,1,.58,0l.3,0,.68,0H95c.35,0,.71,0,1.06.06l.69.08.24,0,.55,0a4.25,4.25,0,0,0,2.8-1,2,2,0,0,0,.21-.2l.23-.22a4,4,0,0,0,.37-.45,2.25,2.25,0,0,1,1.7-1.13c.29,0,.58,0,.86,0a12.5,12.5,0,0,1,2.8.37,7.42,7.42,0,0,1,1.07.34l.59.2a4.28,4.28,0,0,0,1.28.2,4.88,4.88,0,0,0,.76-.07l.59-.13a1.65,1.65,0,0,1,.45-.05,4.18,4.18,0,0,0,2.25-.65l1.12-.7a4.17,4.17,0,0,0,1.37-.54l.56-.31a8.88,8.88,0,0,1,1.37-.47l.57-.17,1.18-.4,0,0a22.32,22.32,0,0,1,2.79-.82,24.34,24.34,0,0,1,4.88-.45,42.28,42.28,0,0,1,4.92.31,22,22,0,0,1,2.47.49c.63.15,1.27.3,1.91.4a20.41,20.41,0,0,1,3.91,1.21l.3.12c.36.14.77.3,1.17.42a4.23,4.23,0,0,0,4.56-1.4l.43-.54.31-.41a14.37,14.37,0,0,0,1.49-2.18,4.24,4.24,0,0,0,.07-3.74l0-.06c-.09-.19-.2-.41-.28-.63a11.75,11.75,0,0,1-.84-2.74,5.3,5.3,0,0,1,1.15-3.91c.26-.4.53-.79.79-1.17a17,17,0,0,0,1.44-2.37,8.57,8.57,0,0,0,.07-5.61,9.36,9.36,0,0,0-1.55-3.13l-.58-.89a8.14,8.14,0,0,1-1.45-3.55,5.61,5.61,0,0,1,1.74-4.35,43.87,43.87,0,0,1,6.64-5.32l1.26-.83c2.21-1.42,4.5-2.89,4.7-5.78l0-.3c0-.13,0-.32,0-.51a4.24,4.24,0,0,0-.94-2.94c-.1-.13-.22-.27-.37-.44a4.44,4.44,0,0,0-.37-.38,8.82,8.82,0,0,0-1.73-1.1,10.65,10.65,0,0,1-1.52-.93l-.17-.14a21.57,21.57,0,0,1-2.73-2.43,4.54,4.54,0,0,1-1.11-4,4.62,4.62,0,0,0,.09-.65c0-.15,0-.39,0-.58,0-1,.11-2,.66-2.41a.65.65,0,0,1,.39-.12c.81,0,2,1.25,2.52,2.11a8.18,8.18,0,0,0,2.25,2.61,4.27,4.27,0,0,0,6.83-2.64.94.94,0,0,1,.42-.67,1.32,1.32,0,0,1,.82-.27,1.55,1.55,0,0,1,1,.35,4.25,4.25,0,0,1,1.33,3.51,16.16,16.16,0,0,1-.64,4,17.61,17.61,0,0,0-.17,5.32,11.4,11.4,0,0,0,.35,1.72l.1.4c.09.31.18.55.32.91a6.55,6.55,0,0,1,.36,1.15,5.52,5.52,0,0,1-1,4,14.94,14.94,0,0,1-1.46,1.52,13.5,13.5,0,0,0-1.48,1.54c-.35.45-.73.88-1.1,1.3a16.93,16.93,0,0,0-1.64,2.05,4,4,0,0,0-.39.74,7.43,7.43,0,0,0-.38,2.94v.39a5.07,5.07,0,0,1-1.46,3.7c-.46.55-.88,1.12-1.29,1.67s-.93,1.26-1.45,1.87a13.82,13.82,0,0,0-2.21,3.71c-.08.18-.15.35-.22.53a9.71,9.71,0,0,0-1,3.29c0,1.28-.16,2.54-.28,3.77l0,.44a4,4,0,0,0,0,.77c0,.13,0,.41.08.63s.08.59.09.88,0,.71,0,1.05a12,12,0,0,0,.05,1.71,11.23,11.23,0,0,0,1,3.55,5.35,5.35,0,0,0,.41.64,11.06,11.06,0,0,0,.78.86l.39.41a8.42,8.42,0,0,1,.83,1.13,8.9,8.9,0,0,0,.66.94,19.5,19.5,0,0,0,3,3,10.7,10.7,0,0,0,4.54,1.89,9.53,9.53,0,0,1,3.95,1.65c2.11,1.68,3.3,4.23,4.43,7.54.33,1,.6,1.9.85,2.82a31.44,31.44,0,0,0,1.41,4.24,8.05,8.05,0,0,0,2.66,2.94l.33.27c.11.09.28.24.43.35a4.29,4.29,0,0,0,2.21.89c.24,0,.55,0,.79.06l.91.07A14.48,14.48,0,0,0,186,212a12.49,12.49,0,0,0,8.19-2.89,9,9,0,0,0,2.42-3.71l.09-.29a7.66,7.66,0,0,0,.11-2.59c0-.35-.05-.76-.05-1.15,0-1.34,0-2.68-.08-4s-.08-2.61-.08-3.93a12.85,12.85,0,0,1,.44-4,11.44,11.44,0,0,1,2.92-3.85l.95-.93c.66-.63,1.34-1.28,2-2,.88-1,1.69-1.89,2.42-2.74a24.19,24.19,0,0,1,4-3.7,20.2,20.2,0,0,0,2.09-1.81,4.27,4.27,0,0,0,1.34-3l3.64-152,871-2.61L1099,1129l-384.7,6.13h0Z" transform="translate(-52.92 -16.71)" fill="none" stroke="#0583F2" stroke-miterlimit="10" stroke-width="1"/></svg>