<?xml version="1.0" encoding="utf-8"?>
<!-- Generator: Adobe Illustrator 24.0.2, SVG Export Plug-In . SVG Version: 6.00 Build 0)  -->
<svg version="1.0" id="Layer_1" xmlns="http://www.w3.org/2000/svg" xmlns:xlink="http://www.w3.org/1999/xlink" x="0px" y="0px"
	 viewBox="0 0 300 280" enable-background="new 0 0 300 280" xml:space="preserve">
<g>
	<path fill="#53BA65" d="M70.29,155.88h-14.9l-1.58,4.88h18.07L70.29,155.88z"/>
	<path fill="#010101" d="M64.1,119.23h7.15l12.7,39.1h-7.15L64.1,119.23z"/>
	<path fill="#010101" d="M61.58,119.23h-7.15l-12.7,39.1h7.15L61.58,119.23z"/>
	<path fill="#010101" d="M249,119.23h-27.62v5.74h10.59v33.35h6.45v-33.35H249V119.23z"/>
	<path fill="#010101" d="M182.73,119.23v39.1h25.1v-5.74h-18.65v-11.12h15.98v-5.73h-15.98v-10.76h18.65v-5.74H182.73z"/>
	<path fill="#010101" d="M115.69,119.23l-9.14,29.22l-9.13-29.21l-0.01-0.01h-7.15l12.7,39.1h7.18l12.7-39.1H115.69z"/>
	<path fill="#010101" d="M141.75,119.23h-5.5v39.1h6.46V132.2l17.62,26.14h5.5v-39.1h-6.45v26.14L141.75,119.23z"/>
	<path fill="#010101" d="M255.4,124.97c-1.58,0-2.87-1.28-2.87-2.87c0-1.58,1.28-2.87,2.87-2.87c1.58,0,2.87,1.28,2.87,2.87
		c0,0.76-0.3,1.49-0.84,2.03C256.89,124.67,256.17,124.97,255.4,124.97z M255.4,119.76c-0.62,0-1.21,0.25-1.64,0.69
		c-0.43,0.44-0.67,1.03-0.66,1.65c-0.06,0.85,0.37,1.67,1.1,2.11c0.73,0.44,1.65,0.44,2.38,0c0.73-0.45,1.16-1.26,1.1-2.11
		c0.01-0.61-0.22-1.21-0.65-1.65C256.61,120.01,256.02,119.76,255.4,119.76z M256.01,123.64l-0.63-1.22h-0.4v1.19h-0.57v-3.07h1.16
		c0.53,0,0.98,0.42,1,0.95c0.01,0.39-0.24,0.73-0.61,0.84l0.69,1.3H256.01z M255.49,121.03h-0.52v0.93h0.52
		c0.18,0.03,0.36-0.06,0.46-0.21c0.1-0.16,0.1-0.36,0-0.51C255.86,121.08,255.68,121,255.49,121.03z"/>
</g>
</svg>
