<svg transform="scale(1)" version="1.1" id="neqsJcSXZ9" xmlns="http://www.w3.org/2000/svg" xmlns:xlink="http://www.w3.org/1999/xlink" x="0px" y="0px" viewBox="0 0 500 500" xml:space="preserve" class="pbimage_pbimage__wrapper__image__0LEis false"><title>Chart 3</title><style type="text/css"> .st0{fill:#FFFFFF;} .st1{fill:#231F20;} .st2{fill:#D1D3D4;} .st3{fill:#68E1FD;}
 .st3{fill:#c2c8caa2;}
 .st2{fill:#D1D3D4;}
 .st1{fill:#231F20;}
 .st0{fill:#FFFFFF;}</style><g id="Paper"><polygon class="st0" points="19.5,262.8 313.5,143.9 474.4,256.2 173.2,401.5 	" fill="#FFFFFF"></polygon><path class="st1" d="M173.2,402.1c-0.2,0-0.3-0.1-0.5-0.2L19,263.3c-0.2-0.2-0.3-0.4-0.2-0.6c0-0.2,0.2-0.4,0.4-0.5l294.1-118.9
		c0.2-0.1,0.5-0.1,0.7,0.1l160.8,112.3c0.2,0.1,0.3,0.4,0.3,0.6c0,0.2-0.2,0.5-0.4,0.6L173.5,402.1
		C173.4,402.1,173.3,402.1,173.2,402.1L173.2,402.1z M20.8,263l152.6,137.6L473,256.1L313.4,144.7L20.8,263z" fill="#231F20"></path><polygon class="st0" points="25.6,247.2 319.7,128.3 480.5,240.6 179.4,385.8 	" fill="#FFFFFF"></polygon><path class="st1" d="M179.4,386.5c-0.2,0-0.3-0.1-0.5-0.2L25.2,247.7c-0.2-0.2-0.3-0.4-0.2-0.6c0-0.2,0.2-0.4,0.4-0.5l294.1-118.9
		c0.2-0.1,0.5-0.1,0.7,0.1L480.9,240c0.2,0.1,0.3,0.4,0.3,0.6c0,0.2-0.2,0.5-0.4,0.6L179.7,386.4
		C179.6,386.5,179.5,386.5,179.4,386.5L179.4,386.5z M26.9,247.4L179.5,385l299.7-144.6L319.6,129.1L26.9,247.4z" fill="#231F20"></path><path class="st2" d="M335.6,177.5c-0.1,0-0.3,0-0.4-0.1l-38.7-27.6c-0.3-0.2-0.4-0.7-0.2-1c0.1-0.1,0.2-0.2,0.3-0.2l8.3-4.1
		c0.2-0.1,0.5-0.1,0.7,0l40,27.7c0.3,0.2,0.5,0.6,0.3,1s-0.6,0.5-1,0.3c0,0-0.1,0-0.1-0.1l-39.7-27.4l-6.9,3.4l37.7,26.9
		c0.3,0.2,0.4,0.7,0.2,1C336,177.4,335.8,177.5,335.6,177.5L335.6,177.5z" fill="#D1D3D4"></path><path class="st2" d="M282.6,200c-0.2,0-0.3,0-0.4-0.1l-39.6-29.8c-0.3-0.2-0.4-0.7-0.1-1c0.2-0.3,0.7-0.4,1-0.1l39.2,29.5
		l70.9-29.6c0.4-0.1,0.8,0,0.9,0.4c0.1,0.4,0,0.8-0.4,0.9l-71.3,29.7c-0.1,0-0.2,0-0.3,0L282.6,200z" fill="#D1D3D4"></path><path class="st2" d="M179.1,360.5c-0.2,0-0.3-0.1-0.4-0.2l-58.1-49.4c-0.3-0.3-0.3-0.7-0.1-1c0.2-0.3,0.7-0.3,1-0.1c0,0,0,0,0,0
		l57.8,49.2l63.1-28.6c0.4-0.2,0.8,0,0.9,0.4c0.2,0.4,0,0.8-0.4,0.9l0,0l-63.6,28.8C179.3,360.5,179.2,360.5,179.1,360.5
		L179.1,360.5z" fill="#D1D3D4"></path><path class="st2" d="M423.1,243.1c-0.4,0-0.7-0.3-0.7-0.7c0-0.3,0.1-0.5,0.4-0.6l23.7-12.1c0.3-0.2,0.8,0,0.9,0.3
		c0.2,0.3,0,0.8-0.3,0.9c0,0,0,0,0,0L423.4,243C423.3,243.1,423.2,243.1,423.1,243.1L423.1,243.1z" fill="#D1D3D4"></path><path class="st2" d="M293.6,195.4c-0.1,0-0.3,0-0.4-0.1l-33.6-24c-0.2-0.1-0.3-0.4-0.3-0.6c0-0.3,0.2-0.5,0.4-0.6l10.3-4.3
		c0.2-0.1,0.5-0.1,0.7,0.1l33,24.3c0.3,0.2,0.4,0.7,0.1,1c-0.2,0.3-0.7,0.4-1,0.2l-32.7-24.1l-8.7,3.7l32.6,23.3
		c0.3,0.2,0.4,0.7,0.2,1C294,195.3,293.8,195.4,293.6,195.4L293.6,195.4z" fill="#D1D3D4"></path><path class="st2" d="M315.7,185.7c-0.1,0-0.3,0-0.4-0.1l-27.1-19.4c-0.3-0.2-0.4-0.7-0.2-1c0.1-0.1,0.2-0.2,0.3-0.2l9.6-4.7
		c0.2-0.1,0.5-0.1,0.7,0.1l27.2,20c0.3,0.2,0.4,0.7,0.1,1c-0.2,0.3-0.7,0.4-1,0.2l-26.9-19.8l-8.2,4l26.2,18.7
		c0.3,0.2,0.4,0.7,0.2,1C316.1,185.6,315.9,185.7,315.7,185.7L315.7,185.7z" fill="#D1D3D4"></path><path class="st2" d="M177.2,353.3h-0.1c-0.4-0.1-0.6-0.4-0.6-0.8c0.1-0.5,2.7-13,9.1-18.1c3.2-2.6,6.8-3.1,10-3.6
		c4.1-0.6,7.7-1.1,9.9-5.9c6-12.8,6.6-23,6.6-23.1c0-0.4,0.4-0.7,0.7-0.7s0.7,0.4,0.7,0.7c0,0.4-0.6,10.5-6.8,23.6
		c-2.6,5.4-6.6,6-11,6.7c-3.1,0.5-6.4,0.9-9.3,3.3c-6,4.8-8.6,17.2-8.6,17.3C177.9,353.1,177.6,353.3,177.2,353.3L177.2,353.3z" fill="#D1D3D4"></path><path class="st2" d="M52,251.4c-0.4,0-0.7-0.3-0.7-0.7c0-0.3,0.2-0.5,0.4-0.7l28-11.1c0.4-0.1,0.8,0,0.9,0.4c0.1,0.4,0,0.8-0.4,0.9
		l0,0l-28,11.1C52.2,251.4,52.1,251.4,52,251.4z" fill="#D1D3D4"></path><path class="st2" d="M58.3,258.9c-0.4,0-0.7-0.3-0.7-0.7c0-0.3,0.2-0.5,0.4-0.7l19-7.5c0.4-0.1,0.8,0,0.9,0.4
		c0.1,0.4,0,0.8-0.4,0.9l-19,7.5C58.5,258.9,58.4,258.9,58.3,258.9z" fill="#D1D3D4"></path></g><g id="Pie_Chart"><path class="st3" d="M177.2,212.3l-83.2-3.9c0,0,7.3-20.4,44.3-29.2c35.5-8.5,52.4-4.2,52.4-4.2L177.2,212.3L177.2,212.3z"></path><path class="st1" d="M177.2,213L177.2,213L94,209.1c-0.4,0-0.7-0.3-0.7-0.7c0-0.1,0-0.1,0-0.2c0.3-0.9,7.8-20.9,44.8-29.7
		c35.2-8.4,52.1-4.3,52.8-4.2c0.2,0.1,0.4,0.2,0.4,0.4c0.1,0.2,0.1,0.4,0,0.6l-13.5,37.3C177.8,212.8,177.5,213,177.2,213L177.2,213
		z M95.1,207.7l81.7,3.9l13.1-36.1c-3.7-0.7-20.6-3-51.3,4.3C106.7,187.4,97,203.7,95.1,207.7z"></path><path class="st0" d="M242.2,279.6c0,0,11-6.6,16.7-21.6l4.3-55.2l-32.6,20L242.2,279.6L242.2,279.6z"></path><path class="st1" d="M242.2,280.3c-0.1,0-0.2,0-0.3-0.1c-0.2-0.1-0.4-0.3-0.4-0.5l-11.6-56.8c-0.1-0.3,0.1-0.6,0.3-0.7l32.6-20
		c0.2-0.1,0.5-0.1,0.7,0c0.2,0.1,0.3,0.4,0.3,0.6l-4.3,55.2c0,0.1,0,0.1,0,0.2c-5.8,15.1-16.5,21.7-17,22
		C242.5,280.3,242.3,280.3,242.2,280.3z M231.4,223.1l11.3,55.3c7-5.2,12.4-12.4,15.5-20.6l4.2-53.7L231.4,223.1L231.4,223.1z"></path><path class="st3" d="M245.7,229.4l-68.5-29.7l17.5-35.8c0,0,33.4,2.3,56.7,19.6C279,204,250.1,226.9,245.7,229.4L245.7,229.4z"></path><path class="st1" d="M245.7,230.1c-0.1,0-0.2,0-0.3-0.1L177,200.4c-0.2-0.1-0.3-0.2-0.4-0.4c-0.1-0.2-0.1-0.4,0-0.6l17.6-35.8
		c0.1-0.3,0.4-0.4,0.7-0.4c0.3,0,33.9,2.5,57.1,19.7c8.4,6.2,12.4,13.3,12,21c-0.7,13.4-15,24.4-17.8,26.1
		C246,230.1,245.9,230.2,245.7,230.1L245.7,230.1z M178.2,199.4l67.5,29.3c3.3-2.1,16.1-12.4,16.8-24.8c0.4-7.2-3.5-13.9-11.4-19.8
		c-21.3-15.8-51.7-19-55.9-19.4L178.2,199.4L178.2,199.4z"></path><polygon class="st1" points="245.7,229.4 242.2,279.6 177.2,250.7 177.2,199.8 	"></polygon><path class="st1" d="M242.2,280.3c-0.1,0-0.2,0-0.3-0.1l-65-28.9c-0.3-0.1-0.4-0.4-0.4-0.6v-51c0-0.4,0.3-0.7,0.7-0.7
		c0.1,0,0.2,0,0.3,0.1l68.5,29.7c0.3,0.1,0.4,0.4,0.4,0.7l-3.5,50.1c0,0.2-0.1,0.4-0.3,0.5C242.4,280.2,242.3,280.3,242.2,280.3
		L242.2,280.3z M177.9,250.3l63.6,28.3l3.4-48.6l-67-29.1L177.9,250.3L177.9,250.3z"></path><polygon class="st1" points="177.2,250.7 96.5,250.1 94.1,208.4 177.2,212.3 	"></polygon><path class="st1" d="M177.2,251.4L177.2,251.4l-80.7-0.7c-0.4,0-0.7-0.3-0.7-0.7l-2.5-41.7c0-0.2,0.1-0.4,0.2-0.5
		c0.1-0.1,0.3-0.2,0.5-0.2l83.2,3.9c0.4,0,0.7,0.3,0.7,0.7v38.4c0,0.2-0.1,0.4-0.2,0.5C177.6,251.3,177.4,251.4,177.2,251.4
		L177.2,251.4z M97.2,249.4l79.4,0.6v-37l-81.7-3.9L97.2,249.4L97.2,249.4z"></path><path class="st0" d="M121.4,285c0,0-10.8-6.3-17.5-12.7s-8.6-16-8.6-16l-1.3-26.7l83.2-3.1v14.5l-19.7,21.9L121.4,285z"></path><path class="st1" d="M121.4,285.7c-0.1,0-0.2,0-0.3-0.1c-0.1-0.1-11-6.4-17.6-12.8s-8.7-15.9-8.8-16.3l-1.3-26.9
		c0-0.2,0.1-0.4,0.2-0.5c0.1-0.1,0.3-0.2,0.5-0.2l83.2-3.1c0.2,0,0.4,0.1,0.5,0.2c0.1,0.1,0.2,0.3,0.2,0.5v14.5
		c0,0.2-0.1,0.3-0.2,0.5L158,263.3l-0.1,0.1l-36.1,22.1C121.6,285.6,121.5,285.6,121.4,285.7L121.4,285.7z M96,256.2
		c0,0,2,9.3,8.4,15.5c5.8,5.6,15,11.3,17,12.4l35.6-21.8l19.5-21.7v-13.5l-81.7,3.1L96,256.2L96,256.2L96,256.2z"></path><path class="st3" d="M177.2,226.4l-56.5,36.5c0,0-15.2-5.1-22.1-16.5s-3.7-23.6-3.7-23.6L177.2,226.4L177.2,226.4z"></path><path class="st1" d="M120.7,263.6c-0.1,0-0.1,0-0.2,0c-0.6-0.2-15.5-5.3-22.5-16.8c-4.3-7.3-5.6-15.9-3.8-24.2
		c0.1-0.3,0.4-0.5,0.7-0.5l82.3,3.7c0.4,0,0.7,0.3,0.7,0.7c0,0.2-0.1,0.4-0.3,0.6l-56.5,36.4C121,263.6,120.8,263.6,120.7,263.6
		L120.7,263.6z M95.5,223.4c-0.5,2.5-2.1,12.8,3.8,22.6c6.2,10.2,19.2,15.3,21.4,16.1L175,227L95.5,223.4L95.5,223.4z"></path><polygon class="st1" points="177.2,226.4 177.2,262.9 121.4,285 120.7,262.9 	"></polygon><path class="st1" d="M121.4,285.7c-0.4,0-0.7-0.3-0.7-0.7l-0.7-22.1c0-0.2,0.1-0.5,0.3-0.6l56.5-36.4c0.2-0.1,0.5-0.1,0.7,0
		c0.2,0.1,0.4,0.4,0.4,0.6v36.5c0,0.3-0.2,0.5-0.4,0.6l-55.8,22.1C121.6,285.7,121.5,285.7,121.4,285.7L121.4,285.7z M121.4,263.2
		l0.6,20.7l54.5-21.6v-34.7L121.4,263.2z"></path><path class="st0" d="M175.4,281.4v15c0,0-34-0.1-54-11.5l-0.5-15.1l51.4,1.8L175.4,281.4L175.4,281.4z"></path><path class="st1" d="M175.4,297.1L175.4,297.1c-0.3,0-34.4-0.2-54.3-11.6c-0.2-0.1-0.3-0.3-0.3-0.6l-0.5-15.1
		c0-0.2,0.1-0.4,0.2-0.5c0.1-0.1,0.3-0.2,0.5-0.2l51.4,1.8c0.3,0,0.6,0.2,0.6,0.5l3,9.8c0,0.1,0,0.1,0,0.2v15c0,0.2-0.1,0.4-0.2,0.5
		C175.7,297,175.5,297.1,175.4,297.1L175.4,297.1z M122.1,284.6c18.1,10.1,47.7,11.1,52.6,11.2v-14.2l-2.9-9.3l-50.2-1.7
		L122.1,284.6z"></path><path class="st3" d="M177.2,234.7l-56.3,35.1c0,0,5.7,5.5,23.6,8.7c10.2,1.9,20.5,2.9,30.9,2.9L177.2,234.7L177.2,234.7z"></path><path class="st1" d="M174.3,282.1c-10.1-0.1-20.1-1.1-30-2.9c-17.9-3.2-23.7-8.7-23.9-8.9c-0.2-0.2-0.2-0.4-0.2-0.6
		c0-0.2,0.1-0.4,0.3-0.5l56.3-35.1c0.2-0.1,0.5-0.1,0.7,0c0.2,0.1,0.4,0.4,0.4,0.6l-1.9,46.7c0,0.4-0.3,0.7-0.7,0.7H174.3
		L174.3,282.1z M122.1,269.9c2,1.5,8.5,5.5,22.5,8c9.9,1.8,20,2.8,30.1,2.9l1.8-44.8L122.1,269.9L122.1,269.9z"></path><path class="st0" d="M242.6,273.7l-0.4,5.9c0,0-12.8,8-20.9,10.5v-6.2L242.6,273.7L242.6,273.7z"></path><path class="st1" d="M221.3,290.7c-0.2,0-0.3,0-0.4-0.1c-0.2-0.1-0.3-0.3-0.3-0.6v-6.2c0-0.3,0.2-0.5,0.4-0.6l21.3-10.1
		c0.3-0.2,0.8,0,0.9,0.3c0.1,0.1,0.1,0.2,0.1,0.4l-0.4,5.9c0,0.2-0.1,0.4-0.3,0.5c-0.5,0.3-13,8.1-21.1,10.5
		C221.4,290.7,221.4,290.7,221.3,290.7L221.3,290.7z M222,284.3v4.8c7.2-2.4,17.6-8.7,19.6-9.9l0.3-4.3L222,284.3L222,284.3z"></path><path class="st3" d="M221.3,283.8c7.6-2.2,14.8-5.7,21.3-10.1l-56.6-26.6L221.3,283.8L221.3,283.8z"></path><path class="st1" d="M221.3,284.5c-0.2,0-0.4-0.1-0.5-0.2l-35.2-36.7c-0.2-0.2-0.3-0.6-0.1-0.9c0.2-0.3,0.6-0.4,0.9-0.2l56.6,26.5
		c0.3,0.2,0.5,0.6,0.3,0.9c-0.1,0.1-0.1,0.2-0.2,0.3c-6.6,4.5-13.9,8-21.6,10.2C221.4,284.5,221.3,284.5,221.3,284.5L221.3,284.5z
		 M189.2,249.4l32.3,33.6c7-2.1,13.6-5.2,19.7-9.2L189.2,249.4L189.2,249.4z"></path><path class="st0" d="M221.3,279.1V290c-14.8,4.9-30.3,7.1-45.9,6.4v-15L221.3,279.1L221.3,279.1z"></path><path class="st1" d="M181.2,297.3c-1.9,0-3.9-0.1-5.9-0.2c-0.4,0-0.7-0.3-0.7-0.7v-15c0-0.4,0.3-0.7,0.7-0.7l45.9-2.3
		c0.2,0,0.4,0.1,0.5,0.2c0.1,0.1,0.2,0.3,0.2,0.5V290c0,0.3-0.2,0.6-0.5,0.7C208.5,295,194.9,297.2,181.2,297.3L181.2,297.3z
		 M176.1,295.8c15.1,0.6,30.1-1.6,44.5-6.2v-9.7l-44.5,2.2V295.8L176.1,295.8z"></path><path class="st3" d="M177.2,235.8l44.1,43.3c-6.5,2-13.2,3.5-19.9,4.5c-8.6,1.3-17.3,1.9-26,1.9L177.2,235.8L177.2,235.8z"></path><path class="st1" d="M175.6,286.2h-0.2c-0.2,0-0.4-0.1-0.5-0.2c-0.1-0.1-0.2-0.3-0.2-0.5l1.8-49.8c0-0.3,0.2-0.5,0.4-0.6
		c0.3-0.1,0.6,0,0.8,0.1l44.1,43.3c0.3,0.3,0.3,0.7,0,1c-0.1,0.1-0.2,0.1-0.3,0.2c-6.5,2-13.2,3.5-20,4.5
		C192.9,285.6,184.2,286.2,175.6,286.2L175.6,286.2z M177.8,237.4l-1.7,47.5c8.4-0.1,16.8-0.7,25.1-1.9c6.3-1,12.6-2.4,18.7-4.1
		L177.8,237.4L177.8,237.4z"></path></g><g id="Bar_Chart"><polygon class="st3" points="391.1,132.3 421,120.9 394.4,103.4 365.2,115.5 	"></polygon><path class="st1" d="M391.1,133c-0.1,0-0.3,0-0.4-0.1l-25.9-16.8c-0.2-0.1-0.3-0.4-0.3-0.7c0-0.3,0.2-0.5,0.4-0.6l29.2-12.1
		c0.2-0.1,0.5-0.1,0.6,0.1l26.5,17.5c0.2,0.1,0.3,0.4,0.3,0.7c0,0.3-0.2,0.5-0.5,0.6L391.4,133C391.3,133,391.2,133,391.1,133
		L391.1,133z M366.7,115.6l24.5,15.9l28.2-10.8l-25.1-16.5L366.7,115.6z"></path><polygon class="st0" points="391.1,132.3 388.3,266.8 418.3,252.4 421,120.9 	"></polygon><path class="st1" d="M388.3,267.5c-0.1,0-0.3,0-0.4-0.1c-0.2-0.1-0.3-0.4-0.3-0.6l2.8-134.5c0-0.3,0.2-0.5,0.5-0.6l29.8-11.4
		c0.2-0.1,0.5-0.1,0.6,0.1c0.2,0.1,0.3,0.4,0.3,0.6L419,252.4c0,0.3-0.2,0.5-0.4,0.6l-30,14.4C388.5,267.5,388.4,267.5,388.3,267.5
		L388.3,267.5z M391.8,132.8L389,265.7l28.6-13.7l2.6-130.1L391.8,132.8L391.8,132.8z"></path><polygon class="st0" points="365.2,115.5 365.2,253.5 388.3,266.8 391.1,132.3 	"></polygon><path class="st1" d="M388.3,267.5c-0.1,0-0.2,0-0.4-0.1l-23.1-13.4c-0.2-0.1-0.3-0.4-0.4-0.6v-138c0-0.4,0.3-0.7,0.7-0.7
		c0.1,0,0.3,0,0.4,0.1l25.9,16.8c0.2,0.1,0.3,0.4,0.3,0.6L389,266.8C389,267.2,388.7,267.5,388.3,267.5L388.3,267.5z M365.9,253.1
		l21.7,12.6l2.8-132.9l-24.5-15.9L365.9,253.1L365.9,253.1z"></path><polygon class="st3" points="357.8,175.4 387.6,164 361.1,146.5 331.9,158.6 	"></polygon><path class="st1" d="M357.8,176.1c-0.1,0-0.3,0-0.4-0.1l-25.9-16.8c-0.2-0.1-0.3-0.4-0.3-0.6c0-0.3,0.2-0.5,0.4-0.6l29.2-12.1
		c0.2-0.1,0.5-0.1,0.6,0.1l26.5,17.5c0.2,0.1,0.3,0.4,0.3,0.7c0,0.3-0.2,0.5-0.5,0.6L358,176.1C357.9,176.1,357.8,176.1,357.8,176.1
		L357.8,176.1z M333.4,158.7l24.5,15.9l28.2-10.8L361,147.3L333.4,158.7z"></path><polygon class="st0" points="357.8,175.4 355,282.2 385,267.8 387.6,164 	"></polygon><path class="st1" d="M355,282.9c-0.1,0-0.3,0-0.4-0.1c-0.2-0.1-0.3-0.4-0.3-0.6l2.8-106.8c0-0.3,0.2-0.5,0.5-0.6l29.8-11.4
		c0.4-0.1,0.8,0,0.9,0.4c0,0.1,0,0.2,0,0.3l-2.6,103.8c0,0.3-0.2,0.5-0.4,0.6l-30,14.4C355.2,282.9,355.1,282.9,355,282.9L355,282.9
		z M358.5,175.9l-2.8,105.2l28.6-13.7l2.6-102.3L358.5,175.9L358.5,175.9z"></path><polygon class="st0" points="331.9,158.6 331.9,268.8 355,282.2 357.8,175.4 	"></polygon><path class="st1" d="M355,282.9c-0.1,0-0.2,0-0.4-0.1l-23.1-13.4c-0.2-0.1-0.3-0.4-0.4-0.6V158.6c0-0.4,0.3-0.7,0.7-0.7
		c0.1,0,0.3,0,0.4,0.1l25.9,16.8c0.2,0.1,0.3,0.4,0.3,0.6l-2.8,106.8c0,0.2-0.1,0.5-0.4,0.6C355.2,282.9,355.1,282.9,355,282.9
		L355,282.9z M332.6,268.4l21.7,12.6l2.8-105.2l-24.5-15.9V268.4L332.6,268.4z"></path><polygon class="st3" points="324.4,216.1 354.2,204.6 327.7,187.2 298.5,199.2 	"></polygon><path class="st1" d="M324.4,216.8c-0.1,0-0.3,0-0.4-0.1l-25.9-16.8c-0.2-0.1-0.3-0.4-0.3-0.6c0-0.3,0.2-0.5,0.4-0.6l29.2-12.1
		c0.2-0.1,0.5-0.1,0.6,0.1l26.5,17.5c0.2,0.1,0.3,0.4,0.3,0.7c0,0.3-0.2,0.5-0.5,0.6l-29.8,11.4
		C324.6,216.8,324.5,216.8,324.4,216.8L324.4,216.8z M300,199.4l24.5,15.9l28.2-10.8L327.6,188L300,199.4z"></path><polygon class="st0" points="324.4,216.1 321.6,298 351.6,283.5 354.2,204.6 	"></polygon><path class="st1" d="M321.6,298.7c-0.1,0-0.3,0-0.4-0.1c-0.2-0.1-0.3-0.4-0.3-0.6l2.8-81.9c0-0.3,0.2-0.5,0.5-0.6L354,204
		c0.2-0.1,0.5-0.1,0.7,0.1c0.2,0.1,0.3,0.4,0.3,0.6l-2.6,78.9c0,0.3-0.2,0.5-0.4,0.6l-30,14.4C321.8,298.6,321.7,298.7,321.6,298.7
		L321.6,298.7z M325.1,216.6l-2.7,80.3l28.6-13.7l2.6-77.4L325.1,216.6L325.1,216.6z"></path><polygon class="st0" points="298.5,199.2 298.5,284.6 321.6,298 324.4,216.1 	"></polygon><path class="st1" d="M321.6,298.7c-0.1,0-0.2,0-0.4-0.1l-23.1-13.4c-0.2-0.1-0.3-0.4-0.4-0.6v-85.4c0-0.3,0.1-0.5,0.4-0.6
		c0.2-0.1,0.5-0.1,0.7,0l25.9,16.8c0.2,0.1,0.3,0.4,0.3,0.6l-2.8,81.9c0,0.2-0.1,0.5-0.4,0.6C321.8,298.6,321.7,298.7,321.6,298.7
		L321.6,298.7z M299.2,284.2l21.8,12.6l2.8-80.3l-24.5-15.9L299.2,284.2L299.2,284.2z"></path><polygon class="st3" points="290.7,253.1 320.5,241.7 294,224.2 264.8,236.3 	"></polygon><path class="st1" d="M290.7,253.8c-0.1,0-0.3,0-0.4-0.1l-25.9-16.8c-0.2-0.1-0.3-0.4-0.3-0.6c0-0.3,0.2-0.5,0.4-0.6l29.2-12.1
		c0.2-0.1,0.5-0.1,0.6,0.1l26.5,17.5c0.2,0.1,0.3,0.4,0.3,0.7c0,0.3-0.2,0.5-0.5,0.6l-29.8,11.4
		C290.8,253.8,290.7,253.8,290.7,253.8L290.7,253.8z M266.3,236.5l24.5,15.9l28.3-10.8L293.9,225L266.3,236.5L266.3,236.5z"></path><polygon class="st0" points="290.7,253.1 287.9,314.9 317.9,300.5 320.5,241.7 	"></polygon><path class="st1" d="M287.9,315.6c-0.1,0-0.3,0-0.4-0.1c-0.2-0.1-0.3-0.4-0.3-0.6l2.8-61.8c0-0.3,0.2-0.5,0.5-0.6l29.8-11.4
		c0.2-0.1,0.5-0.1,0.7,0.1c0.2,0.1,0.3,0.4,0.3,0.6l-2.6,58.8c0,0.3-0.2,0.5-0.4,0.6l-30,14.4C288.1,315.6,288,315.6,287.9,315.6
		L287.9,315.6z M291.3,253.6l-2.7,60.1l28.6-13.7l2.6-57.3L291.3,253.6L291.3,253.6z"></path><polygon class="st0" points="264.8,236.3 264.8,301.6 287.9,314.9 290.7,253.1 	"></polygon><path class="st1" d="M287.9,315.6c-0.1,0-0.2,0-0.4-0.1l-23.1-13.4c-0.2-0.1-0.3-0.4-0.4-0.6v-65.2c0-0.4,0.3-0.7,0.7-0.7
		c0.1,0,0.3,0,0.4,0.1l25.9,16.8c0.2,0.1,0.3,0.4,0.3,0.6l-2.8,61.8c0,0.2-0.1,0.5-0.4,0.6C288.1,315.6,288,315.6,287.9,315.6
		L287.9,315.6z M265.5,301.1l21.7,12.6l2.8-60.2l-24.5-15.9L265.5,301.1L265.5,301.1z"></path><polygon class="st3" points="256.7,289.5 286.5,278.1 260,260.6 230.8,272.7 	"></polygon><path class="st1" d="M256.7,290.2c-0.1,0-0.3,0-0.4-0.1l-25.9-16.8c-0.2-0.1-0.3-0.4-0.3-0.6c0-0.3,0.2-0.5,0.4-0.6l29.2-12
		c0.2-0.1,0.5-0.1,0.6,0.1l26.5,17.5c0.2,0.1,0.3,0.4,0.3,0.7c0,0.3-0.2,0.5-0.5,0.6L257,290.2C256.9,290.2,256.8,290.2,256.7,290.2
		L256.7,290.2z M232.3,272.8l24.5,15.9l28.2-10.8l-25.1-16.5L232.3,272.8L232.3,272.8z"></path><polygon class="st0" points="256.7,289.5 253.9,330.9 283.9,316.5 286.5,278.1 	"></polygon><path class="st1" d="M253.9,331.6c-0.1,0-0.3,0-0.4-0.1c-0.2-0.1-0.3-0.4-0.3-0.6l2.8-41.4c0-0.3,0.2-0.5,0.5-0.6l29.8-11.4
		c0.2-0.1,0.5-0.1,0.7,0.1c0.2,0.1,0.3,0.4,0.3,0.6l-2.6,38.5c0,0.3-0.2,0.5-0.4,0.6l-30,14.4C254.1,331.6,254,331.6,253.9,331.6z
		 M257.4,290l-2.7,39.8l28.5-13.7l2.5-37L257.4,290L257.4,290z"></path><polygon class="st0" points="230.8,272.7 230.8,317.6 253.9,330.9 256.7,289.5 	"></polygon><path class="st1" d="M253.9,331.6c-0.1,0-0.2,0-0.4-0.1l-23.1-13.4c-0.2-0.1-0.3-0.4-0.4-0.6v-44.9c0-0.4,0.3-0.7,0.7-0.7
		c0.1,0,0.3,0,0.4,0.1l25.9,16.8c0.2,0.1,0.3,0.4,0.3,0.6l-2.8,41.5c0,0.2-0.2,0.5-0.4,0.6C254.2,331.6,254,331.6,253.9,331.6
		L253.9,331.6z M231.5,317.2l21.8,12.6l2.7-39.9L231.5,274V317.2L231.5,317.2z"></path></g><g id="Arrow"><path class="st1" d="M404.6,141.2c0,0-29.2,58.3-63.8,97.4c-18.7,21.1-70.6,71.7-70.6,71.7l22.4-17.6c0,0,51.1-37.7,72.6-65.6
		s48.1-74.9,48.6-76.7s-4.7-13.4-4.7-13.4L404.6,141.2L404.6,141.2z"></path><path class="st1" d="M270.2,311c-0.2,0-0.4-0.1-0.5-0.2c-0.3-0.3-0.3-0.7,0-1c0,0,0,0,0,0c0.5-0.5,52.1-50.8,70.5-71.6
		c34.2-38.6,63.4-96.7,63.7-97.3c0-0.1,0.1-0.1,0.1-0.2l4.5-4.2c0.2-0.2,0.4-0.2,0.6-0.2c0.2,0,0.4,0.2,0.5,0.4
		c1.3,2.8,5.3,11.9,4.8,13.9c-0.5,1.7-27,48.8-48.7,77c-21.3,27.6-72.2,65.3-72.7,65.7l-22.4,17.6C270.5,311,270.4,311,270.2,311
		L270.2,311z M405.2,141.7c-1.5,2.9-30.3,59.5-63.9,97.5c-13.7,15.5-45.7,47.2-61.5,62.8l12.3-9.7c0.5-0.4,51.3-38,72.5-65.4
		c21.6-28,47.9-74.8,48.5-76.5c0.2-0.9-2-6.8-4.3-12L405.2,141.7L405.2,141.7z"></path><polygon class="st1" points="438.5,100 435.1,98.6 393.9,136.6 395.2,140.2 	"></polygon><path class="st1" d="M395.2,140.9c-0.1,0-0.1,0-0.2,0c-0.2-0.1-0.4-0.2-0.5-0.4l-1.3-3.6c-0.1-0.3,0-0.6,0.2-0.8L434.7,98
		c0.2-0.2,0.5-0.2,0.8-0.1l3.4,1.4c0.2,0.1,0.4,0.3,0.4,0.5c0,0.2,0,0.5-0.2,0.6l-43.4,40.2C395.6,140.8,395.4,140.9,395.2,140.9
		L395.2,140.9z M394.7,136.8l0.8,2.1l41.8-38.8l-2-0.8L394.7,136.8L394.7,136.8z"></path><path class="st3" d="M292.6,290.5c0,0,45.3-37.4,77.3-82.2c14.3-20,27-41.1,38.1-63.1l-12.9-5l43.4-40.2l-2.4,53.1l-11.3-3.1
		c0,0-29.7,51.6-51.8,77c-31.1,35.7-84.5,74.2-102.9,83.4L292.6,290.5L292.6,290.5z"></path><path class="st1" d="M270.2,311c-0.2,0-0.5-0.1-0.6-0.3c-0.2-0.3-0.1-0.7,0.1-0.9l22.4-19.8l0,0c0.5-0.4,45.6-37.8,77.2-82.1
		c14.1-19.8,26.7-40.6,37.7-62.3l-12.1-4.8c-0.2-0.1-0.4-0.3-0.4-0.5c-0.1-0.2,0-0.5,0.2-0.6l43.4-40.2c0.3-0.3,0.7-0.2,1,0.1
		c0.1,0.1,0.2,0.3,0.2,0.5l-2.4,53.1c0,0.2-0.1,0.4-0.3,0.5c-0.2,0.1-0.4,0.2-0.6,0.1l-10.8-3c-3,5.2-30.8,52.8-51.6,76.6
		c-30.7,35.2-84.2,74.2-103.1,83.6C270.5,311,270.4,311.1,270.2,311L270.2,311z M293.1,291l-17.7,15.7
		c22.2-12.9,69.2-48.1,97.2-80.3c21.8-25,51.4-76.4,51.7-76.9c0.2-0.3,0.5-0.4,0.8-0.3l10.5,2.9l2.2-50.5l-41.3,38.3l11.8,4.6
		c0.2,0.1,0.3,0.2,0.4,0.4c0.1,0.2,0.1,0.4,0,0.6c-11.1,22-23.8,43.1-38.2,63.2C339,252.9,294,290.3,293.1,291L293.1,291z"></path></g></svg>