<?xml version="1.0" encoding="utf-8"?>
<!-- Generator: Adobe Illustrator 24.2.0, SVG Export Plug-In . SVG Version: 6.00 Build 0)  -->
<svg version="1.0" id="Layer_1" xmlns="http://www.w3.org/2000/svg" xmlns:xlink="http://www.w3.org/1999/xlink" x="0px" y="0px"
	 viewBox="0 0 300 280" enable-background="new 0 0 300 280" xml:space="preserve">
<path fill-rule="evenodd" clip-rule="evenodd" fill="#28296B" d="M179.81,157.6v-17.1h-6.41v-10.55h18.53v-8.98h10.21v10.83
	l2.14-1.28l2.14-0.86l2.38-0.43l2.14-0.14l4.28,0.43l4.04,1.14l1.42,0.71l1.19,0.85l0.24,0.28l-3.09,7.13l-1.19-0.71l-1.43-0.57
	l-3.8-1l-1.19,0.14l-0.47,0.28v0.57l0.24,0.43l0.47,0.43l0.95,0.29l4.75,1.57l1.66,1.14l1.43,1.43l0.95,1.85l0.47,1.99v2.14
	l-0.24,1.43l-0.48,1.43l-0.71,1.28l-0.95,1.28l-1.19,1.14l-1.19,0.86l-1.43,0.71l-1.42,0.43l-2.38,0.57l-2.38,0.28l-3.32-0.43
	l-3.09-0.71l-2.85-1.28l-2.85-1.57l3.09-7.55l3.32,1.71l3.8,1h1.9l0.71-0.14l0.24-0.43l0.24-0.14l-0.24-0.57l-0.48-0.28l-0.95-0.43
	l-2.38-0.71l-2.14-0.85l-2.14-1.28l-0.95-1l-0.95-1.14l-0.71-1.28l-0.24-1.42l-0.24-1.57l0.24-2.14l0.48-2.14l0.71-1.14l0.95-1
	v-0.14h-9.74v25.23H179.81L179.81,157.6z M109.74,157.46l4.28-27.51h10.45l3.57,11.26l3.56-11.26h10.45l4.04,25.37l9.5-25.37h10.93
	l9.5,27.65h-11.64l-3.56-13.54l-3.33,13.54h-21.86l-1.42-9.69l-3.33,9.69h-6.18l-3.09-9.41l-2.14,9.26H109.74L109.74,157.46z
	 M89.78,143.78v-0.71l0.24-0.71l0.95-1.43l1.19-0.86l1.66-0.28l1.42,0.28l1.43,0.86l0.95,1.43l0.24,0.71v1.57l-0.24,0.71l-0.95,1.43
	l-1.43,0.86l-1.42,0.28l-1.66-0.28l-1.19-0.86l-0.95-1.43l-0.24-0.71V143.78L89.78,143.78z M78.62,143.64v-1.57l0.24-1.43l0.95-2.85
	l1.43-2.57l1.9-2.28l2.14-1.99l2.61-1.28l2.85-0.86l3.09-0.28l2.85,0.28l2.85,0.86l2.61,1.28l2.38,1.99l1.9,2.28l1.19,2.57
	l0.95,2.85l0.24,1.43v2.99l-0.24,1.43l-0.95,2.85l-1.19,2.71l-1.9,2.28l-2.38,1.85l-2.61,1.43l-2.85,0.86l-2.85,0.28l-3.09-0.28
	l-2.85-0.86l-2.61-1.43l-2.14-1.85l-1.9-2.28l-1.43-2.71l-0.95-2.85l-0.24-1.43V143.64L78.62,143.64z M48.92,157.75v-27.94h11.64
	v13.4l6.41-13.4h13.07l-6.89,13.54l7.13,14.4h-13.3l-6.41-13.11v13.11H48.92L48.92,157.75z M225.19,129.95h11.16v16.53l0.24,1
	l0.24,0.57l0.71,0.28l0.71,0.14l0.71-0.14l0.47-0.71l0.24-0.86v-16.82h11.4v17.53l-0.24,1.71l-0.24,1.57l-0.47,1.57l-0.71,1.57
	l-1.19,1.28l-1.19,1.14l-1.43,1l-1.66,0.57l-2.85,0.71l-3.09,0.14l-3.32-0.14l-3.09-0.71l-1.66-0.71l-1.42-1l-1.19-1.28l-0.95-1.42
	l-0.95-2.85v-1.57l-0.24-1.43V129.95L225.19,129.95z"/>
</svg>
