<svg transform="scale(1)" version="1.1" id="Layer_1" xmlns="http://www.w3.org/2000/svg" xmlns:xlink="http://www.w3.org/1999/xlink" x="0px" y="0px" viewBox="0 0 500 500" xml:space="preserve" class="show_show__wrapper__graphic__5Waiy "><title>React</title><style type="text/css">
	.st0{fill:#FFFFFF;}
	.st1{fill:#D1D3D4;}
	.st2{fill:#231F20;}
	.st3{fill:#0583F2;}
</style><g id="Chair"><path class="st0" d="M190.4,157.6h106.1c28,0,50.7,22.7,50.8,50.7c0,1.7-0.1,3.3-0.2,5l-10,101.8H149.9l-10-101.8
		c-2.7-27.9,17.7-52.7,45.5-55.4C187.1,157.7,188.8,157.6,190.4,157.6z"></path><path class="st1" d="M337,315.8H149.9c-0.4,0-0.7-0.3-0.7-0.6l-10-101.8c-2.8-28.3,17.9-53.4,46.2-56.2c1.7-0.2,3.3-0.2,5-0.2
		h106.1c28.4,0,51.4,23,51.4,51.4c0,1.7-0.1,3.4-0.2,5l-10,101.8C337.6,315.5,337.4,315.8,337,315.8z M150.6,314.4h185.8l9.9-101.2
		c2.7-27.5-17.4-52-44.9-54.7c-1.6-0.2-3.3-0.2-4.9-0.2H190.4c-27.6,0-50,22.4-50,50c0,1.6,0.1,3.3,0.2,4.9L150.6,314.4z"></path></g><g id="Desk"><polygon class="st0" points="447.2,367.9 51.3,367.9 95.4,285.5 403.2,285.5 	"></polygon><path class="st2" d="M447.2,368.6H51.3c-0.4,0-0.7-0.3-0.7-0.7c0-0.1,0-0.2,0.1-0.3l44-82.4c0.1-0.2,0.4-0.4,0.6-0.4h307.8
		c0.3,0,0.5,0.1,0.6,0.4l44,82.4c0.1,0.2,0.1,0.5,0,0.7C447.7,368.5,447.4,368.6,447.2,368.6z M52.5,367.2H446l-43.3-81h-307
		L52.5,367.2z"></path><rect class="st0" x="51.3" y="367.9" width="395.9" height="19.4"></rect><path class="st2" d="M447.2,388H51.3c-0.4,0-0.7-0.3-0.7-0.7l0,0v-19.4c0-0.4,0.3-0.7,0.7-0.7c0,0,0,0,0,0h395.9
		c0.4,0,0.7,0.3,0.7,0.7v0v19.4C447.9,387.7,447.6,388,447.2,388z M52,386.6h394.5v-18H52V386.6z"></path></g><g id="Character"><path class="st0" d="M377.6,234.8c-8.1,4.5-53.2,8.7-60.1,11.9c-1.2,0.6-2.4,1.2-3.5,2c-10.9,7.2-18.2,24.7,0.9,26.3
		c5.8,0.5,57.2-18.5,77.6-27.1c4.5-1.9,19.5-9.6,18.3-12.6s-5.9-10.8-7.8-10.2s-15.8,7.1-15.8,7.1s3.9-11.6,0-11.2
		S377.6,234.8,377.6,234.8z"></path><path class="st2" d="M315.1,275.7h-0.3c-8.6-0.7-11.4-4.6-12.2-7.7c-1.7-6.8,4.2-15.5,11-19.9c1.2-0.8,2.4-1.5,3.6-2.1
		c3.2-1.5,13.6-3.1,25.7-4.9c13.8-2.1,29.4-4.5,34.1-6.9c1-2.2,6.1-13.6,10.1-14c0.7-0.1,1.4,0.2,1.8,0.7c1.5,1.9,0.3,7.1-0.6,9.9
		c3.7-1.7,12.9-6.1,14.4-6.5c2.8-0.8,7.8,8.4,8.6,10.7c1.7,4.4-18.5,13.5-18.7,13.6C374.2,256.4,322.4,275.7,315.1,275.7z
		 M387.4,221.7h-0.1c-2.5,0.2-6.9,8.4-9,13.4c-0.1,0.1-0.2,0.3-0.3,0.4c-4.6,2.5-20,4.9-34.8,7.1c-11.5,1.7-22.3,3.4-25.3,4.8
		c-1.2,0.6-2.3,1.3-3.4,2c-7.1,4.7-11.7,12.9-10.4,18.4c1,3.8,4.7,6.1,10.9,6.6h0.2c6.5,0,56.5-18.4,77.1-27
		c7.1-3,18.6-9.9,17.9-11.7c-1.4-3.6-5.7-9.8-6.9-9.8l0,0c-1.5,0.4-11.8,5.3-15.6,7.1c-0.3,0.1-0.6,0.1-0.8-0.1
		c-0.2-0.2-0.3-0.5-0.2-0.8c1.1-3.4,2.3-8.8,1.3-10.1C387.8,221.7,387.6,221.6,387.4,221.7L387.4,221.7z M377.6,234.8L377.6,234.8z"></path><path class="st0" d="M275.4,164.6c11.6-10.2,21.5-22.2,29.3-35.6l11.7,7.2C316.4,136.3,305.6,164.9,275.4,164.6z"></path><path class="st2" d="M275.8,165.4h-0.4c-0.4,0-0.7-0.3-0.7-0.7c0-0.2,0.1-0.4,0.3-0.6c11.5-10.2,21.3-22.1,29.1-35.4
		c0.2-0.3,0.7-0.5,1-0.3c0,0,0,0,0,0l11.7,7.2c0.3,0.2,0.4,0.5,0.3,0.9C316.9,136.9,305.9,165.4,275.8,165.4z M304.9,130.1
		c-7.5,12.6-16.8,23.9-27.6,33.8c25.7-0.9,36.5-23.4,38.1-27.3L304.9,130.1z"></path><path class="st0" d="M275.4,164.6c0,0,18.6,3.1,37-9.9l2.4,16.2c0,0-17,8.9-42.2-1L275.4,164.6z"></path><path class="st2" d="M296,175.3c-8.1-0.1-16.1-1.6-23.6-4.6c-0.2-0.1-0.3-0.2-0.4-0.4c-0.1-0.2-0.1-0.4,0-0.6l2.8-5.3
		c0.1-0.3,0.5-0.4,0.8-0.4c13,1.3,25.9-2.2,36.5-9.8c0.3-0.2,0.8-0.1,1,0.2c0.1,0.1,0.1,0.2,0.1,0.3l2.4,16.2c0,0.3-0.1,0.6-0.4,0.7
		C315,171.6,307.8,175.3,296,175.3z M273.6,169.6c22,8.3,37.6,2.2,40.4,0.9l-2.2-14.5c-10.6,7.2-23.3,10.6-36,9.4L273.6,169.6z"></path><path class="st3" d="M327,243.7c0,0-4.2-10.3-24.2-33.7c-9.6-11.2-35.4-15.5-42.3-15.8c1.5,0.1,5.8-2.2-23.6,0
		c-15.1,1.1-24.8,1.9-33.8,11.4c-16.8,17.9-53.2,56-53.2,56l38.4,11c0,0,6.2-4.4,8.5-7.4l-5.5,41l103.8,6l-0.9-47l10.6,8.7
		L327,243.7z"></path><path class="st3" d="M258.7,194.2c0,0,0.7,0,1.8,0.1C259.9,194.2,258.7,194.2,258.7,194.2z"></path><polygon class="st0" points="231.6,198.7 232.6,303.8 261.6,303.8 261.6,192.9 	"></polygon><path class="st2" d="M261.6,304.4h-29.1c-0.3,0-0.6-0.3-0.6-0.6L231,198.7c0-0.3,0.2-0.6,0.5-0.6l30-5.8c0.2,0,0.4,0,0.5,0.1
		c0.1,0.1,0.2,0.3,0.2,0.5v110.9C262.3,304.2,262,304.4,261.6,304.4z M233.2,303.2H261V193.7l-28.7,5.5L233.2,303.2z"></path><path class="st2" d="M226,265.9c-0.2,0-0.5-0.1-0.6-0.4l-12.7-26.4c-0.1-0.2-0.1-0.4,0.1-0.6l8.2-12l-8-5.9
		c-0.3-0.2-0.3-0.6-0.1-0.9l12.7-18.6c0.2-0.3,0.6-0.4,0.9-0.2c0,0,0,0,0,0c0.3,0.2,0.4,0.6,0.2,0.9c0,0,0,0,0,0l-12.3,18.1l8,5.9
		c0.3,0.2,0.3,0.6,0.1,0.9l-8.4,12.2l12.5,26.1c0.1,0.3,0,0.7-0.3,0.9C226.1,265.9,226.1,265.9,226,265.9z"></path><path class="st2" d="M266.3,265.9c-0.1,0-0.2,0-0.3-0.1c-0.3-0.1-0.5-0.5-0.3-0.8c0,0,0,0,0,0l12.5-26.1l-8.3-12.2
		c-0.2-0.3-0.1-0.7,0.1-0.9l8-5.9l-12.3-18.1c-0.2-0.3-0.1-0.7,0.2-0.9c0.3-0.2,0.7-0.1,0.9,0.2c0,0,0,0,0,0l12.7,18.6
		c0.2,0.3,0.1,0.7-0.1,0.9l-8,5.9l8.2,12c0.1,0.2,0.1,0.4,0,0.6l-12.7,26.4C266.7,265.7,266.5,265.9,266.3,265.9z"></path><path class="st0" d="M272.9,187.1c-0.2,0,3.2-17.9,3.5-19.5c2-10.1,3.5-19.4,2.6-27.6c-2.4,1.2-3,4.8-5,6.6c-0.7-7.6-1.1-15.3-1-23
		c-13.1,4.7-27,9.8-35.7,20.8l-1-16.4c-6.1,9.8-12.2,19.8-15.5,31c-3.2,10.9-1,21.5,1.6,32.4L272.9,187.1z"></path><path class="st2" d="M222.4,192.1c-0.3,0-0.6-0.2-0.7-0.6c-2.8-11.5-4.8-21.8-1.6-32.8c3.3-11.5,9.9-21.9,15.6-31.1
		c0.2-0.3,0.5-0.4,0.8-0.3c0.3,0.1,0.5,0.3,0.5,0.7l0.9,14.6c9.1-10.5,23.3-15.5,34.8-19.5c0.2-0.1,0.5-0.1,0.7,0.1
		c0.2,0.1,0.3,0.4,0.3,0.6c-0.1,7.1,0.2,14.2,0.8,21.2c0.3-0.5,0.6-1,0.9-1.6c0.8-1.5,1.7-3.1,3.2-3.9c0.2-0.1,0.5-0.1,0.7,0
		c0.2,0.1,0.3,0.3,0.4,0.6c1,8.5-0.7,18-2.6,27.8c-0.4,1.9-3.4,18-3.5,19.3c0,0.1,0,0.2,0,0.3c-0.1,0.3-0.3,0.5-0.6,0.5l-50.5,4.3
		L222.4,192.1z M235.6,130.3c-5.4,8.7-11.2,18.4-14.2,28.9s-1.2,20.4,1.5,31.4l49.4-4.2c0.2-1.8,0.9-6.4,3.4-18.9
		c1.8-9.2,3.3-18.1,2.7-26.1c-0.7,0.8-1.3,1.6-1.7,2.6c-0.6,1.2-1.3,2.3-2.3,3.2c-0.3,0.3-0.8,0.2-1-0.1c-0.1-0.1-0.2-0.3-0.2-0.4
		c-0.7-7.3-1-14.7-1-22.1c-11.6,4.1-25.8,9.4-34.4,20.2c-0.2,0.3-0.7,0.4-1,0.1c-0.2-0.1-0.3-0.3-0.3-0.5L235.6,130.3z"></path><path class="st0" d="M265.4,186.3c1.4-8.6,15.6-10.7,15-0.6c-0.1,3.5-1.5,6.9-3.8,9.5c-2.5,2.5-6.4,3.7-9.6,2.2"></path><path class="st2" d="M270,198.8c-1.1,0-2.2-0.2-3.3-0.7c-0.4-0.1-0.5-0.6-0.4-0.9c0,0,0-0.1,0-0.1c0.2-0.4,0.6-0.5,0.9-0.4
		c0,0,0,0,0,0c3.1,1.2,6.5,0.3,8.8-2.1c2.6-2.7,3.4-6.4,3.6-9.1c0.2-3.4-1.4-5.6-4.4-6c-3.7-0.4-8.4,2.2-9.1,6.7
		c-0.1,0.4-0.4,0.7-0.8,0.6c-0.4-0.1-0.7-0.4-0.6-0.8l0,0c0.9-5.4,6.2-8.4,10.7-7.9c3,0.3,6,2.5,5.7,7.5c-0.2,2.9-1.1,7-4,10
		C275.3,197.6,272.7,198.8,270,198.8z"></path><path class="st0" d="M229.9,186.3c-1.4-8.6-15.7-10.7-14.9-0.6c0.1,3.5,1.5,6.9,3.8,9.5c2.4,2.5,6.4,3.7,9.6,2.2"></path><path class="st2" d="M225.3,198.8c-2.7,0-5.2-1.1-7.1-3.1c-2.9-3-3.8-7.1-4-10c-0.4-5,2.7-7.1,5.7-7.5c4.5-0.5,9.9,2.5,10.7,7.9
		c0.1,0.4-0.2,0.8-0.6,0.8c-0.4,0.1-0.8-0.2-0.8-0.6l0,0c-0.7-4.5-5.4-7.1-9.1-6.7c-3,0.4-4.6,2.5-4.4,6c0.2,2.7,1,6.4,3.6,9.1
		c2.4,2.4,6,3.3,8.8,2.1c0.4-0.2,0.8,0,1,0.3c0,0,0,0,0,0c0.2,0.4,0,0.8-0.3,1c0,0,0,0-0.1,0C227.6,198.7,226.4,198.9,225.3,198.8z"></path><polygon class="st0" points="231.9,225.9 246.2,237.7 261.6,229.1 262.6,193.5 231.9,192.6 	"></polygon><path class="st2" d="M246.2,238.4c-0.2,0-0.3-0.1-0.5-0.2l-14.3-11.8c-0.2-0.1-0.3-0.3-0.3-0.6v-33.4c0-0.2,0.1-0.4,0.2-0.5
		c0.1-0.1,0.3-0.2,0.5-0.2l30.7,0.9c0.4,0,0.7,0.4,0.7,0.8l-1,35.6c0,0.3-0.1,0.5-0.4,0.6l-15.4,8.6
		C246.5,238.4,246.4,238.4,246.2,238.4z M232.6,225.6l13.7,11.2l14.6-8.1l1-34.5l-29.3-0.9L232.6,225.6z"></path><path class="st2" d="M232.9,206.9c0.3,1.6,9,12.5,29.2,13.7v-13.8c-4.8,0.7-11.2,3-16.4,2.6C241.3,209,236.8,208.6,232.9,206.9
		C232.2,206.6,233.5,207.3,232.9,206.9z"></path><path class="st2" d="M262,221.3L262,221.3c-19.1-1.2-28.5-11.1-29.7-13.9c-0.3-0.2-0.4-0.6-0.3-0.9c0.1-0.3,0.4-0.6,1.1-0.2l0,0
		c3.9,1.7,8.5,2.1,12.6,2.4c3.3,0.3,7.2-0.6,10.9-1.4c1.9-0.4,3.7-0.9,5.4-1.1c0.2,0,0.4,0,0.6,0.2c0.2,0.1,0.2,0.3,0.2,0.5v13.8
		C262.7,221,262.4,221.3,262,221.3L262,221.3L262,221.3z M234.5,208.3c2.6,3.2,10.9,10.4,26.9,11.6v-12.2c-1.4,0.2-2.9,0.6-4.5,1
		c-3.8,0.9-7.8,1.8-11.3,1.5C241.8,209.9,238.1,209.3,234.5,208.3L234.5,208.3z"></path><path class="st0" d="M245.8,212.6h2.3c10.9,0,19.7-8.8,19.7-19.7v-23.2c0-4.9-6.8-7.8-10.7-8.5c-4.2-0.7-8.6,0-12.9,0.6
		c-10.4,1.6-18.3,5.4-18.1,17.1c0,4.6,0,9.3,0,13.9C226.1,203.8,234.9,212.6,245.8,212.6C245.8,212.6,245.8,212.6,245.8,212.6z"></path><path class="st2" d="M248.1,213.3h-2.3c-11.3,0-20.4-9.2-20.4-20.4v-4.6c0-3.1,0-6.2,0-9.3c-0.1-13.2,10-16.5,18.8-17.9
		c4.3-0.7,8.7-1.3,13.1-0.6c4.7,0.8,11.3,4.1,11.3,9.2v23.2C268.5,204.2,259.4,213.3,248.1,213.3z M253.2,161.6
		c-3,0.1-5.9,0.4-8.8,0.9c-12.4,1.9-17.6,6.8-17.5,16.4c0,3.1,0,6.2,0,9.3c0,1.6,0,3.1,0,4.6c0,10.5,8.5,19,19,19l0,0h2.3
		c10.5,0,19-8.5,19-19v0v-23.2c0-4.2-6-7.1-10.1-7.8C255.8,161.7,254.5,161.6,253.2,161.6L253.2,161.6z"></path><ellipse class="st2" transform="matrix(0.9978 -6.592560e-02 6.592560e-02 0.9978 -11.6225 17.116)" cx="253.5" cy="184.7" rx="1.2" ry="2.7"></ellipse><ellipse class="st2" transform="matrix(0.9978 -6.592560e-02 6.592560e-02 0.9978 -11.6551 15.9867)" cx="236.4" cy="184.6" rx="1.2" ry="2.7"></ellipse><path class="st2" d="M242.1,205.7c-0.7,0-1.1,0-1.1,0c-0.4,0-0.7-0.4-0.6-0.8s0.4-0.7,0.8-0.6l0,0c0.1,0,8.7,0.8,17.1-6.3
		c0.3-0.3,0.8-0.2,1,0.1c0.3,0.3,0.2,0.8-0.1,1l0,0C254.5,203.2,248.4,205.6,242.1,205.7z"></path><path class="st2" d="M260.9,201.4c-0.1,0-0.2,0-0.3-0.1c-3.6-1.6-3.2-5.7-2.5-7.6c0.1-0.4,0.5-0.6,0.9-0.4c0,0,0,0,0,0
		c0.4,0.1,0.6,0.6,0.4,0.9c-0.1,0.2-1.5,4.3,1.7,5.8c0.4,0.2,0.5,0.6,0.4,1c0,0,0,0,0,0C261.4,201.3,261.2,201.4,260.9,201.4z"></path><path class="st2" d="M244,200.4c-0.5,0-0.9-0.2-1.2-0.6c-1.9-2.3,0.1-12.3,0.5-14.3c0.1-0.4,0.5-0.6,0.9-0.5
		c0.4,0.1,0.6,0.5,0.5,0.8c-1,4.7-1.9,11.8-0.8,13.1c2.6,0,4.6-3.1,4.6-3.1c0.2-0.3,0.7-0.4,1-0.2s0.4,0.7,0.2,1
		C249.6,196.7,247.2,200.4,244,200.4z"></path><path class="st2" d="M249.1,184.3c-0.4,0-0.7-0.3-0.8-0.7c0-0.3,0.2-0.7,0.6-0.7c1.1-0.3,4.7-3.3,6.7-4.9c0.9-0.8,1.7-1.4,2-1.6
		c0.3-0.2,0.8-0.1,1,0.2c0.2,0.3,0.2,0.8-0.2,1c0,0,0,0,0,0c-0.3,0.2-1.1,0.9-2,1.6c-3.2,2.6-5.9,4.8-7.2,5.2
		C249.1,184.3,249.1,184.3,249.1,184.3z"></path><path class="st2" d="M240.2,184.3c-0.1,0-0.3,0-0.4-0.1c-3.1-2-6.7-4.3-7.3-4.5c-0.3,0-0.5-0.3-0.6-0.6c-0.1-0.4,0.2-0.8,0.6-0.9
		c0.4-0.1,0.7-0.1,8.2,4.7c0.3,0.2,0.4,0.7,0.2,1c0,0,0,0,0,0C240.7,184.2,240.5,184.3,240.2,184.3z"></path><path class="st0" d="M352.7,297l-57.5-14.4c0,0-28.8,45.4-43.2,54.7l68.7,19.8C320.7,357.1,349.2,311.7,352.7,297z"></path><path class="st2" d="M320.8,357.8h-0.2L251.8,338c-0.3-0.1-0.5-0.3-0.5-0.6c0-0.3,0.1-0.5,0.3-0.7c14.1-9.1,42.6-54,42.9-54.4
		c0.2-0.3,0.5-0.4,0.8-0.3l57.5,14.4c0.4,0.1,0.6,0.5,0.5,0.8c0,0,0,0,0,0c-3.5,14.6-30.9,58.4-32,60.3
		C321.2,357.7,321,357.8,320.8,357.8z M253.6,337l66.8,19.2c2.9-4.7,27.5-44.5,31.4-58.8l-56.4-14.1
		C292.5,288.2,267.7,326.7,253.6,337z"></path><path class="st1" d="M327,344.9c-0.1,0-0.2,0-0.2,0c-18.1-6.5-45.7-16.2-47.4-16.4c-0.4-0.1-0.7-0.4-0.6-0.8s0.4-0.7,0.8-0.6l0,0
		c2.4,0.3,43.1,14.8,47.7,16.5c0.4,0.1,0.6,0.5,0.4,0.9C327.6,344.8,327.3,345,327,344.9L327,344.9z"></path><path class="st1" d="M332.6,335.6c-0.1,0-0.2,0-0.2,0c-18.1-6.5-45.7-16.2-47.4-16.4c-0.4-0.1-0.6-0.4-0.6-0.8
		c0.1-0.4,0.4-0.7,0.8-0.6c0,0,0,0,0,0c2.4,0.3,43.1,14.8,47.7,16.5c0.4,0.1,0.5,0.5,0.4,0.9C333.1,335.4,332.9,335.6,332.6,335.6z"></path><path class="st1" d="M340.1,324.1c-0.1,0-0.2,0-0.2,0c-18.1-6.5-45.7-16.2-47.4-16.4c-0.4,0-0.6-0.4-0.6-0.8c0,0,0,0,0,0
		c0.1-0.4,0.4-0.6,0.8-0.6c2.4,0.3,43.1,14.8,47.7,16.5c0.4,0.1,0.6,0.5,0.4,0.9C340.7,323.9,340.4,324.1,340.1,324.1L340.1,324.1z"></path><path class="st1" d="M345.2,311.6c-0.1,0-0.2,0-0.2,0c-18.1-6.5-45.7-16.2-47.4-16.4c-0.4,0-0.6-0.4-0.6-0.7c0,0,0,0,0,0
		c0.1-0.4,0.4-0.6,0.8-0.6c2.4,0.3,43.1,14.8,47.7,16.5c0.4,0.1,0.6,0.5,0.4,0.9c0,0,0,0,0,0C345.7,311.5,345.5,311.6,345.2,311.6z"></path><path class="st0" d="M310.1,312.3c0,0,7.7,40.3,13.4,49.4c0,0,55.9-2.6,70.2-13.2c0,0-23.2-31.4-27.1-45.8L310.1,312.3z"></path><path class="st2" d="M323.5,362.4c-0.2,0-0.5-0.1-0.6-0.3c-5.8-9.1-13.2-48-13.5-49.6c0-0.2,0-0.4,0.1-0.5c0.1-0.2,0.3-0.3,0.5-0.3
		l56.6-9.6c0.4-0.1,0.7,0.2,0.8,0.5c3.8,14.1,26.7,45.2,27,45.5c0.2,0.3,0.2,0.7-0.1,1c0,0,0,0,0,0
		C379.8,359.6,325.9,362.3,323.5,362.4L323.5,362.4z M310.9,312.9c1,5.3,7.8,39.3,13,48.1c5.1-0.3,54.6-3.1,68.9-12.6
		c-3.2-4.4-22.6-31.2-26.6-44.8L310.9,312.9z"></path><polygon class="st0" points="207.7,293.8 189.6,344.5 279.5,347.9 262.6,293.8 	"></polygon><path class="st2" d="M279.5,348.6L279.5,348.6l-89.8-3.4c-0.2,0-0.4-0.1-0.6-0.3c-0.1-0.2-0.2-0.4-0.1-0.6l18-50.8
		c0.1-0.3,0.4-0.5,0.7-0.5h54.9c0.3,0,0.6,0.2,0.7,0.5l16.8,54.2c0.1,0.2,0,0.5-0.1,0.6C279.9,348.5,279.7,348.6,279.5,348.6z
		 M190.6,343.9l87.9,3.3l-16.4-52.7h-53.9L190.6,343.9z"></path><polygon class="st2" points="230.8,277.1 244.9,303 245.1,304.3 245.8,310.4 241.1,306.4 240.1,305.6 226,279.8 	"></polygon><path class="st2" d="M245.8,311.1c-0.2,0-0.3-0.1-0.4-0.2l-5.7-4.7c-0.1-0.1-0.1-0.1-0.2-0.2l-14.2-25.9c-0.2-0.3-0.1-0.8,0.3-0.9
		c0,0,0,0,0,0l4.8-2.6c0.2-0.1,0.4-0.1,0.5-0.1c0.2,0.1,0.3,0.2,0.4,0.3l14.2,25.9c0,0.1,0.1,0.2,0.1,0.2l0.9,7.4
		c0,0.3-0.1,0.6-0.4,0.7C246.1,311,245.9,311.1,245.8,311.1z M240.7,305.2l4.2,3.5l-0.7-5.5l-13.8-25.2l-3.6,2L240.7,305.2z"></path><path class="st2" d="M223.1,273l3.5-1.9c0.7-0.4,1.5-0.1,1.8,0.5l6.7,12.3l0,0l-5.9,3.2l0,0l-6.7-12.3
		C222.2,274.2,222.4,273.4,223.1,273L223.1,273z"></path><path class="st2" d="M229.3,287.9c-0.1,0-0.1,0-0.2,0c-0.2-0.1-0.3-0.2-0.4-0.3l-6.7-12.3c-0.6-1-0.2-2.2,0.7-2.7
		c0,0,0.1,0,0.1-0.1l3.5-1.9c1-0.5,2.3-0.2,2.8,0.8l6.7,12.3c0.2,0.3,0.1,0.8-0.2,1c0,0,0,0-0.1,0l-5.9,3.2
		C229.6,287.9,229.4,287.9,229.3,287.9z M227.3,271.6c-0.1,0-0.2,0-0.3,0.1l-3.5,1.9l0,0c-0.2,0.1-0.3,0.2-0.3,0.4
		c-0.1,0.2,0,0.4,0.1,0.5l6.4,11.7l4.7-2.6l-6.4-11.7C227.8,271.8,227.5,271.6,227.3,271.6L227.3,271.6z M223.1,273L223.1,273z"></path><path class="st2" d="M226.1,287.8c-0.3,0-0.5-0.1-0.6-0.4c-0.1-0.3-3.5-6.4-4-7.3s0.1-4.1,0.4-5.4c0.1-0.4,0.4-0.6,0.8-0.6
		c0,0,0,0,0,0c0.4,0.1,0.6,0.4,0.6,0.8c0,0,0,0,0,0c-0.4,1.5-0.5,3-0.4,4.6c0.3,0.7,2.9,5.4,3.9,7.2c0.2,0.3,0.1,0.8-0.3,1
		c0,0,0,0,0,0C226.3,287.8,226.2,287.8,226.1,287.8z"></path><path class="st0" d="M176.3,267.4c-11.6-5.4-29.7-11.9-34.4,5.2c-2.5,8.8,2.3,18,10.9,21c20.8,7.7,78.4,15.7,78.4,15.7
		s5.7-1,7.6-4.6s7.1,0.2,9.8-2.2s0.8-7.1-1.8-10.8s-11.3-4.1-13.5-3.7s-7.8,3.7-7.8,3.7c-5.2,3.1-17.8-7.7-22.1-10.2
		c-8.2-4.7-16.5-9.1-25-13.2L176.3,267.4z"></path><path class="st2" d="M231.2,310L231.2,310c-0.7-0.1-58-8.1-78.7-15.7c-9-3.1-13.9-12.7-11.3-21.8c1.4-5,4-8.4,7.8-10.2
		c8-3.7,19.6,0.8,27.5,4.5l0,0c0.8,0.4,1.5,0.7,2.2,1c8.5,4.1,16.9,8.6,25.1,13.2c1,0.6,2.4,1.5,4,2.7c5.1,3.6,13.7,9.7,17.4,7.5
		c0,0,5.6-3.3,8-3.8c2-0.4,11.2-0.1,14.2,3.9c3.7,5.1,4.3,9.4,1.7,11.6c-1.5,1.3-3.5,1-5.2,0.8c-2.2-0.3-3.6-0.4-4.4,1.1
		c-2.1,3.9-7.8,4.9-8.1,4.9L231.2,310z M156,262.2c-2.2,0-4.4,0.4-6.4,1.3c-3.4,1.6-5.8,4.7-7.1,9.4c-2.4,8.5,2.2,17.4,10.5,20.3
		c20.1,7.5,75.4,15.3,78.2,15.6c0.7-0.1,5.4-1.2,7.1-4.2c1.2-2.4,3.6-2.1,5.7-1.8c1.6,0.2,3.2,0.4,4.2-0.5c3-2.6-0.7-8.2-1.9-9.9
		c-2.4-3.3-10.7-3.9-12.9-3.4c-1.7,0.3-6,2.7-7.6,3.6c-4.4,2.6-12.7-3.3-18.8-7.5c-1.6-1.1-2.9-2.1-3.9-2.6
		c-8.1-4.7-16.6-9.1-25-13.2c-0.7-0.3-1.4-0.7-2.1-1l0,0C170.3,265.3,162.6,262.2,156,262.2z"></path><path class="st0" d="M218.3,171.8c0,0,36.1,15.2,58.7,1.7l2.4-15.2c0,0-35,7.8-57.6-5.3c-1.5,3.1-2.7,6.3-3.4,9.7
		C217.9,165.6,217.9,168.7,218.3,171.8z"></path><path class="st2" d="M253.9,179.6c-18.2,0-35.5-7.2-35.8-7.3c-0.2-0.1-0.3-0.3-0.4-0.5c-0.4-3.1-0.4-6.3,0.1-9.4
		c0.7-3.4,1.9-6.7,3.4-9.8c0.1-0.2,0.2-0.3,0.4-0.3c0.2,0,0.3,0,0.5,0.1c22.1,12.8,56.8,5.3,57.1,5.2c0.2,0,0.4,0,0.6,0.2
		c0.2,0.1,0.2,0.4,0.2,0.6l-2.4,15.2c0,0.2-0.1,0.4-0.3,0.4C270.4,178.2,262,179.6,253.9,179.6z M218.9,171.3
		c3.7,1.5,36.6,14,57.5,1.7l2.2-14c-5.6,1.1-36.1,6.2-56.5-5.2c-1.3,2.8-2.3,5.8-3,8.9C218.7,165.6,218.6,168.5,218.9,171.3z"></path><path class="st2" d="M241.1,233.3l3.3,5.4c0,0-2.2,19.1,5.6,30c7.8,10.9,52.1-16,52.1-16l1.5-15.1h-15.8c0,0-21.4,27.5-31.4,21
		c-8.8-5.8-8-21-8-21l5.7-4.4l-7-6.3L241.1,233.3z"></path><path class="st2" d="M256.5,272c-3.2,0-5.8-0.8-7.2-2.9c-7.5-10.5-6-27.9-5.7-30.3l-3.1-5.2c-0.2-0.3-0.1-0.6,0.1-0.8l5.9-6.3
		c0.2-0.3,0.7-0.3,1-0.1c0,0,0,0,0,0l7.1,6.3c0.2,0.1,0.2,0.3,0.2,0.6c0,0.2-0.1,0.4-0.3,0.5l-5.5,4.2c0,2.2,0,15,7.7,20.1
		c9.3,6.1,30.2-20.6,30.4-20.8c0.1-0.2,0.3-0.3,0.5-0.3h15.8c0.2,0,0.4,0.1,0.5,0.2c0.1,0.1,0.2,0.3,0.2,0.5l-1.5,15.1
		c0,0.2-0.1,0.4-0.3,0.5C300.9,254.3,271.5,272,256.5,272z M241.9,233.4l3,5c0.1,0.1,0.1,0.3,0.1,0.4c0,0.2-2.1,18.9,5.4,29.5
		c6,8.5,38.5-8.5,50.9-16l1.3-13.9H288c-2.4,3-22.1,27.4-32.1,20.9c-9-5.9-8.3-21-8.3-21.6c0-0.2,0.1-0.4,0.3-0.5l5.1-3.9l-6-5.3
		L241.9,233.4z"></path><path class="st2" d="M251.8,225c-12.6,0-19.2-5.2-19.6-5.5c-0.3-0.2-0.4-0.7-0.2-1c0.2-0.3,0.7-0.4,1-0.2c0,0,0.1,0,0.1,0.1
		c0.1,0.1,10,7.8,28.3,4.2c0.4-0.1,0.8,0.2,0.8,0.6c0,0,0,0,0,0c0.1,0.4-0.2,0.8-0.6,0.9C258.5,224.7,255.1,225,251.8,225z"></path><path class="st2" d="M196.9,266c-0.3,0-0.6-0.2-0.7-0.5L189,247c-0.1-0.4,0.1-0.8,0.5-0.9c0.3-0.1,0.7,0.1,0.9,0.4l7.2,18.5
		c0.1,0.4,0,0.8-0.4,0.9C197,266,197,266,196.9,266z"></path><path class="st0" d="M387.1,296.9l-52.1,5.4c0,0,6.4,44.4,10.2,53.7c0,0,47.3,3.5,71.6-10.5C416.9,345.5,387.5,305.2,387.1,296.9z"></path><path class="st2" d="M358.1,357.1c-7.6,0-12.7-0.4-12.9-0.4c-0.3,0-0.5-0.2-0.6-0.4c-3.8-9.2-10-52-10.3-53.9c0-0.2,0-0.4,0.1-0.5
		c0.1-0.2,0.3-0.3,0.5-0.3l52.1-5.4c0.2,0,0.4,0,0.5,0.2c0.1,0.1,0.2,0.3,0.2,0.5c0.2,6.4,19.5,34.3,29.6,48.2
		c0.1,0.2,0.2,0.4,0.1,0.6c0,0.2-0.2,0.4-0.3,0.5C400.9,355.6,374,357.1,358.1,357.1z M345.8,355.4c4.8,0.3,47.3,2.5,70.1-10.1
		c-3.8-5.2-27.7-38.4-29.3-47.6l-50.7,5.3C336.7,308.7,342.3,346.2,345.8,355.4L345.8,355.4z"></path><path class="st1" d="M263.6,336.7L263.6,336.7l-63.9-1.6c-0.4,0-0.7-0.3-0.7-0.7c0-0.4,0.3-0.7,0.7-0.7l0,0l63.9,1.6
		c0.4,0,0.7,0.3,0.7,0.7C264.3,336.4,264,336.7,263.6,336.7z"></path><path class="st1" d="M220.6,324.1c-9.2,0-16.3,0-16.6-0.1c-0.4-0.1-0.6-0.4-0.6-0.8c0.1-0.4,0.4-0.6,0.8-0.6c1.4,0.1,38.1,0,57.4,0
		l0,0c0.4,0,0.7,0.3,0.7,0.7c0,0.4-0.3,0.7-0.7,0.7C253.6,324,234.6,324.1,220.6,324.1z"></path><path class="st1" d="M256.4,312L256.4,312l-10.6-1c-0.4-0.1-0.6-0.4-0.6-0.8c0.1-0.3,0.4-0.6,0.7-0.6l10.6,1c0.4,0,0.7,0.4,0.6,0.8
		C257.1,311.7,256.8,312,256.4,312z"></path></g><g id="flying_paper"><path class="st0" d="M115.7,218.9c0,0-27.1-3.4-34.1-14.6c-4.5-7.2,6.6-31.8,6.6-31.8s3.7,14.2,13.7,16.3s16.3,3,16.3,3
		S110.6,211.8,115.7,218.9z"></path><path class="st2" d="M115.7,219.6L115.7,219.6c-1.2-0.1-27.6-3.6-34.7-14.9c-4.7-7.5,6.1-31.5,6.6-32.5c0.1-0.3,0.4-0.4,0.7-0.4
		c0.3,0,0.5,0.2,0.6,0.5c0,0.1,3.7,13.8,13.1,15.8c9.8,2.1,16.2,3,16.3,3c0.2,0,0.4,0.2,0.5,0.3c0.1,0.2,0.1,0.4,0.1,0.6
		c-0.1,0.2-7.4,19.8-2.6,26.5c0.2,0.2,0.2,0.5,0,0.8C116.2,219.5,116,219.6,115.7,219.6z M88.2,174.5c-2.4,5.7-9.5,23.7-5.9,29.4
		c5.8,9.4,26.5,13.2,32.2,14.1c-3.3-7.2,1.6-22,2.9-25.6c-2.1-0.3-7.7-1.2-15.5-2.9C93.6,187.7,89.6,178.5,88.2,174.5z"></path><path class="st1" d="M85.9,203.4c-0.4,0-0.7-0.3-0.7-0.6c-0.7-6.7,3.5-18.3,3.8-18.8c0.1-0.4,0.5-0.6,0.9-0.4
		c0.4,0.1,0.6,0.5,0.4,0.9c0,0,0,0,0,0.1c0,0.1-4.3,11.8-3.6,18.2c0,0.4-0.2,0.7-0.6,0.8c0,0,0,0,0,0L85.9,203.4z"></path><path class="st0" d="M85.2,208.3c0,0-0.5-6.4,2.5-10.7l-6-6.4C81.7,191.2,77.2,202.6,85.2,208.3z"></path><path class="st2" d="M85.2,209c-0.1,0-0.3,0-0.4-0.1c-8.4-6-3.8-17.8-3.8-17.9c0.1-0.4,0.6-0.5,0.9-0.4c0.1,0,0.2,0.1,0.3,0.2
		l6,6.5c0.2,0.2,0.3,0.6,0.1,0.9c-2.8,4-2.4,10.1-2.4,10.2c0,0.3-0.1,0.5-0.4,0.7C85.5,209,85.3,209,85.2,209z M82,192.5
		c-0.8,2.7-2.3,9.8,2.5,14.3c0-3.2,0.8-6.3,2.3-9.1L82,192.5z"></path><path class="st1" d="M92.3,209L92.3,209c-0.4,0-0.7-0.3-0.7-0.7c0-0.5,0.4-12.1,3.2-19c0.1-0.4,0.5-0.6,0.9-0.5
		c0.4,0.1,0.6,0.5,0.5,0.9c0,0.1,0,0.1-0.1,0.1c-2.7,6.7-3.2,18.4-3.2,18.5C93,208.7,92.7,209,92.3,209z"></path><path class="st1" d="M99.5,211.2c-0.4,0-0.7-0.3-0.7-0.7c-0.2-7.7,3.2-17.5,3.3-17.9c0.1-0.4,0.6-0.5,0.9-0.4
		c0.3,0.1,0.5,0.5,0.4,0.8c0,0.1-3.4,9.9-3.2,17.4C100.2,210.8,99.9,211.2,99.5,211.2C99.5,211.2,99.5,211.2,99.5,211.2L99.5,211.2z
		"></path><path class="st1" d="M106.8,213c-0.4,0-0.7-0.3-0.7-0.7c0-4.4,0.3-8.8,1.1-13.1c0.1-0.4,0.4-0.6,0.8-0.6c0.4,0.1,0.6,0.4,0.6,0.8
		c-0.8,4.2-1.1,8.5-1.1,12.8C107.5,212.7,107.2,213,106.8,213L106.8,213z"></path><path class="st0" d="M385.4,162.1l-8.1,28.9c0,0,35.2,0.4,47.4-14.7l4.6-29.9C429.3,146.4,395.5,163.5,385.4,162.1z"></path><path class="st2" d="M377.5,191.7h-0.2c-0.2,0-0.4-0.1-0.5-0.3c-0.1-0.2-0.2-0.4-0.1-0.6l8.1-28.9c0.1-0.3,0.4-0.5,0.8-0.5
		c9.8,1.4,43.1-15.5,43.5-15.6c0.3-0.2,0.8,0,0.9,0.3c0.1,0.1,0.1,0.3,0.1,0.4l-4.6,29.9c0,0.1-0.1,0.2-0.1,0.3
		c-5.2,6.4-14.8,10.9-28.7,13.3C390.2,191.1,383.9,191.7,377.5,191.7z M385.9,162.9l-7.7,27.4c5.6-0.1,34.9-1.1,45.8-14.3l4.4-28.4
		C422.3,150.7,395.7,163.6,385.9,162.9L385.9,162.9z"></path><path class="st0" d="M381.8,258.7c0,0,1.2-33.2,19-50.4l47.8,13.9c0,0-25.9,28.2-25.6,51.6L381.8,258.7z"></path><path class="st2" d="M423,274.5c-0.1,0-0.2,0-0.2,0l-41.2-15.1c-0.3-0.1-0.5-0.4-0.5-0.7c0-0.3,1.4-33.7,19.3-50.9
		c0.2-0.2,0.5-0.2,0.7-0.2l47.8,13.9c0.2,0.1,0.4,0.3,0.5,0.5c0.1,0.2,0,0.5-0.2,0.7c-0.2,0.3-25.7,28.2-25.5,51.1
		c0,0.2-0.1,0.5-0.3,0.6C423.3,274.4,423.2,274.5,423,274.5z M382.6,258.2l39.7,14.5c0.2-12,7-25,12.8-33.9
		c3.7-5.7,7.8-11.1,12.2-16.3l-46.3-13.4C385.1,224.8,382.8,253.9,382.6,258.2L382.6,258.2z"></path><path class="st1" d="M433.5,226.8c-0.1,0-0.1,0-0.2,0l-32.8-9.5c-0.4-0.1-0.6-0.5-0.5-0.9c0.1-0.4,0.5-0.6,0.9-0.5l32.8,9.5
		c0.4,0.1,0.6,0.5,0.5,0.8C434.2,226.6,433.9,226.8,433.5,226.8L433.5,226.8z"></path><path class="st1" d="M428.8,236.4c-0.1,0-0.1,0-0.2,0l-32.8-9.5c-0.4-0.1-0.6-0.4-0.5-0.8c0.1-0.4,0.4-0.6,0.8-0.5c0,0,0.1,0,0.1,0
		L429,235c0.4,0.1,0.6,0.5,0.5,0.9C429.4,236.2,429.1,236.4,428.8,236.4z"></path><path class="st1" d="M424.8,246.5h-0.2l-32.8-9.5c-0.4-0.1-0.6-0.5-0.5-0.9c0.1-0.4,0.5-0.6,0.9-0.5c0,0,0,0,0,0l32.9,9.5
		c0.4,0.1,0.6,0.5,0.5,0.9C425.4,246.3,425.1,246.5,424.8,246.5L424.8,246.5z"></path><path class="st1" d="M410.8,255.5c-0.1,0-0.1,0-0.2,0l-23.4-6.8c-0.4-0.1-0.6-0.5-0.5-0.9s0.5-0.6,0.9-0.5l23.4,6.8
		c0.4,0.1,0.6,0.5,0.5,0.9C411.4,255.3,411.1,255.5,410.8,255.5L410.8,255.5z"></path><path class="st1" d="M416.9,179h-0.1c-0.2,0-0.7-0.1-0.6-0.9c0-0.2,0.1-0.3,0.2-0.4c0.5-2.5,2.6-15.4,4-24.2
		c0.1-0.4,0.4-0.6,0.8-0.6c0.4,0.1,0.6,0.4,0.6,0.8C417.9,177.7,417.6,179,416.9,179z"></path><path class="st1" d="M409.8,182.6h-0.1c-0.2,0-0.7-0.1-0.6-0.9c0-0.2,0.1-0.3,0.2-0.4c0.5-2.5,2.6-15.4,4-24.2
		c0.1-0.4,0.5-0.6,0.8-0.5c0.3,0.1,0.6,0.4,0.5,0.8C410.9,181.3,410.6,182.6,409.8,182.6z"></path><path class="st1" d="M402.3,184.1h-0.1c-0.2,0-0.7-0.1-0.6-0.9c0-0.2,0.1-0.3,0.2-0.4c0.5-2.5,2.6-15.4,4-24.2
		c0.1-0.4,0.4-0.6,0.8-0.6c0.4,0.1,0.6,0.4,0.6,0.8C403.3,182.8,403.1,184.1,402.3,184.1z"></path><path class="st1" d="M395.2,187.8H395c-0.2,0-0.7-0.1-0.6-0.9c0-0.2,0.1-0.3,0.2-0.4c0.5-2.5,2.6-15.4,4-24.2
		c0.1-0.4,0.4-0.6,0.8-0.6c0.4,0.1,0.6,0.4,0.6,0.8c0,0,0,0,0,0C396.2,186.5,396,187.8,395.2,187.8z"></path><path class="st1" d="M387.7,188.8h-0.1c-0.2,0-0.7-0.1-0.6-0.9c0-0.2,0.1-0.3,0.2-0.4c0.5-2.5,2.6-15.4,4-24.2
		c0.1-0.4,0.4-0.6,0.8-0.6c0.4,0.1,0.6,0.4,0.6,0.8C388.7,187.5,388.5,188.8,387.7,188.8z"></path><path class="st0" d="M357.6,139.1c0,0-0.4,7.5,6.1,17.4c0,0,13.9-21.4,22.4-24.7S363.8,125.3,357.6,139.1z"></path><path class="st2" d="M363.7,157.2c-0.2,0-0.5-0.1-0.6-0.3c-6.6-10-6.3-17.5-6.3-17.8c0-0.1,0-0.2,0.1-0.2
		c4.3-9.7,20.2-11.4,27.7-10.3c2.4,0.4,3.6,1,3.7,2c0.1,1.1-1.4,1.7-1.9,1.9c-8.2,3.2-22,24.3-22.1,24.5
		C364.2,157.1,364,157.3,363.7,157.2L363.7,157.2z M358.3,139.2c0,1,0.2,7.5,5.5,16c2.8-4.2,14.5-21.1,22.2-24.1
		c0.3-0.1,0.7-0.3,0.9-0.5c-0.8-0.6-4.7-1.3-10.3-0.8C372.2,130.2,361.7,131.9,358.3,139.2L358.3,139.2z"></path><path class="st0" d="M388.9,149.1c0,0-10.8-18-31.3-10c4.1-9.1,9.1-17.7,15-25.8c0,0,11.3-4,26.4,8.7
		C399,122,394.1,141,388.9,149.1z"></path><path class="st2" d="M388.9,149.8L388.9,149.8c-0.2,0-0.5-0.1-0.6-0.3c-0.4-0.7-10.7-17.4-30.4-9.7c-0.3,0.1-0.6,0-0.8-0.2
		c-0.2-0.2-0.2-0.5-0.1-0.8c4.1-9.1,9.2-17.8,15-25.9c0.1-0.1,0.2-0.2,0.3-0.2c0.5-0.2,11.9-3.9,27.1,8.9c0.2,0.2,0.3,0.4,0.2,0.7
		c-0.2,0.8-5,19.1-10.2,27.3C389.3,149.7,389.1,149.8,388.9,149.8z M367.7,136.4c11.9,0,19.1,8.6,21.1,11.4
		c4.5-7.7,8.6-22.8,9.4-25.6c-13.4-11.1-23.7-8.8-25.2-8.4c-5.4,7.6-10.1,15.6-14.1,24C361.7,136.9,364.7,136.4,367.7,136.4
		L367.7,136.4z"></path><path class="st1" d="M387,139.3c-0.1,0-0.2,0-0.2,0c-0.4-0.1-0.6-0.5-0.4-0.9l5.7-16.5c0.1-0.4,0.5-0.6,0.9-0.4c0,0,0,0,0,0
		c0.4,0.1,0.6,0.5,0.4,0.9l-5.7,16.5C387.6,139.1,387.3,139.3,387,139.3z"></path><path class="st1" d="M380.4,135.1c-0.1,0-0.2,0-0.2,0c-0.4-0.1-0.6-0.5-0.4-0.9l5.6-16.3c0.1-0.4,0.5-0.6,0.8-0.5
		c0.4,0.1,0.6,0.5,0.5,0.8c0,0,0,0.1,0,0.1l-5.6,16.3C381,135,380.7,135.1,380.4,135.1z"></path><path class="st1" d="M372.2,133c-0.1,0-0.2,0-0.3-0.1c-0.4-0.1-0.5-0.6-0.4-0.9c0,0,0,0,0,0c6.5-15.5,6.9-15.5,7.4-15.6
		c0.4,0,0.7,0.2,0.8,0.6c0,0.2-0.1,0.5-0.3,0.7c-0.7,1-4.4,9.6-6.6,14.9C372.7,132.8,372.5,133,372.2,133z"></path></g><g id="Laptop"><polygon class="st2" points="162.3,347.9 195.6,316.6 106,309.4 73.6,338 	"></polygon><path class="st2" d="M162.3,348.5L162.3,348.5l-88.7-9.9c-0.3,0-0.5-0.2-0.6-0.5c-0.1-0.3,0-0.6,0.2-0.7l32.3-28.6
		c0.1-0.1,0.3-0.2,0.5-0.2l89.7,7.2c0.4,0,0.7,0.4,0.6,0.7c0,0.2-0.1,0.3-0.2,0.5l-33.3,31.2C162.6,348.5,162.4,348.6,162.3,348.5z
		 M75.3,337.5l86.7,9.6l32-29.9l-87.8-7.1L75.3,337.5z"></path><polygon class="st0" points="162.3,347.9 145.6,277.8 58.6,270.9 73.6,338 	"></polygon><path class="st2" d="M162.3,348.5L162.3,348.5l-88.7-9.8c-0.3,0-0.5-0.3-0.6-0.5l-15.1-67c0-0.2,0-0.4,0.2-0.6
		c0.1-0.2,0.4-0.3,0.6-0.2l87,6.8c0.3,0,0.6,0.2,0.6,0.5l16.7,70.1c0.1,0.2,0,0.5-0.1,0.6C162.7,348.5,162.5,348.6,162.3,348.5z
		 M74.3,337.4l87.1,9.6L145,278.4l-85.5-6.7L74.3,337.4z"></path><path class="st1" d="M112.4,320.1c-2.9-0.1-5.8-1.2-8-3.1c-2-1.7-5-6.8-5.2-7c-0.2-0.3-0.1-0.6,0.1-0.8l1.9-2.1
		c0.1-0.2,0.3-0.2,0.6-0.2c0.2,0,0.4,0.1,0.5,0.3c2.1,2.7,5.8,3.7,9,2.5l0,0c2.3-1,4.2-2.7,5.2-5c0.1-0.5,0.2-1,0.3-1.6
		c0.1-1,0.2-1.5,0.4-1.8s0.6-0.8,3.7-0.1c0.3,0.1,0.6,0.3,0.6,0.7l0.1,3.8c0.2,1,1.6,7.2,0,9.3c-2.4,3.2-5.2,5-8.2,5.3
		C113,320.1,112.7,320.1,112.4,320.1z M100.7,309.7c0.8,1.3,3.1,4.9,4.6,6.2c2.2,1.9,5,2.9,7.9,2.7c2.7-0.3,5.1-1.9,7.3-4.7
		c0.9-1.3,0.4-5.7-0.2-8.2c0,0,0-0.1,0-0.1l-0.1-3.2c-0.6-0.1-1.2-0.2-1.8-0.1c0,0.2-0.1,0.7-0.1,1c0,0.7-0.2,1.4-0.4,2
		c-1.2,2.6-3.4,4.6-6,5.7l0,0c-3.5,1.4-7.5,0.5-10.2-2.3L100.7,309.7z M111.7,310.2L111.7,310.2z"></path></g></svg>